<?xml version="1.0" encoding="utf-8"?>
<!-- Generator: Adobe Illustrator 25.0.1, SVG Export Plug-In . SVG Version: 6.00 Build 0)  -->
<svg version="1.1" id="SAAS" xmlns="http://www.w3.org/2000/svg" xmlns:xlink="http://www.w3.org/1999/xlink" x="0px" y="0px"
	 viewBox="0 0 600 400" enable-background="new 0 0 600 400" xml:space="preserve">
<g id="Data_Entry">
	<g id="background_5_">
		<path fill="#FBF4EB" d="M412.819,290.275c75.581,0,86.286-83.59,86.286-115.436c0-28.585-9.197-121.583-122.932-121.583
			c-102.983,0-242.456,75.842-242.456,147.5c0,26.047,27.96,76.198,88.97,76.198c25.644,0,52.464-6.726,78.374-6.726
			C338.092,270.228,363.439,290.275,412.819,290.275z"/>
		<path fill="#FBF4EB" d="M287.006,351.476c39.604,0,64.15-20.041,64.15-36.226c0-12.507-14.667-22.453-42.332-22.453
			c-40.249,0-64.114,17.59-64.114,33.239C244.71,338.571,259.299,351.476,287.006,351.476z"/>
	</g>
	<g id="object_3_">
		<path fill="#C8E7F0" d="M451.179,136.827c0.205,0,0.377,0.083,0.448,0.426c0.005,0.038,0.008,0.073,0.008,0.107
			c0,0.554-0.704,0.55-0.909,1.002c0.131,0.318,1.109,0.343,1.109,0.728c0,0.358-0.696,0.65-0.696,0.849
			c0,0.293,0.82,0.355,0.82,1.565c0,0.244-0.048,0.442-0.122,0.512c-0.406,0.384-0.529,0.774-0.529,1.165
			c0,0.61,0.302,1.223,0.302,1.821c0,0.043-0.002,0.085-0.005,0.127c0.143,0.3,0.191,0.599,0.191,0.898
			c0,0.608-0.198,1.216-0.201,1.824l0.003,0.003c0.036,0.493,0.05,0.986,0.05,1.478c0,1.518-0.123,2.802-0.123,5.257
			c0,0.825,0.057,1.656,0.407,2.441c-0.051,1.934-0.195,3.873-0.195,5.804c0,0.336,0.16,5.738,0.213,6.411
			c-1.236,1.079-2.858,0.886-4.298,1.267c-10.815,2.862-14.011,1.798-14.011,4.053c0,0.183,0.024,0.387,0.072,0.614
			c-0.172,0.318-0.402,0.438-0.669,0.438c-0.147,0-0.305-0.037-0.47-0.098c-0.482-0.971-1.128-1.304-1.999-1.304
			c-1.755,0-11.94,2.686-19.128,3.97c-0.511,0.004-0.917,0.305-1.362,0.494c-2.761,0.489-3.274-0.669-3.274,13.56
			c0,1.693,0.028,2.204,0.028,2.874c0,3.041-0.323,6.457-0.323,6.525c0,1.099,0.637,1.195,0.637,1.577
			c0,0.13-0.045,0.272-0.092,0.389c-0.857,2.161-0.299,4.481-0.756,6.686c-0.021,0.388-0.108,0.767-0.135,1.154
			c-0.001,0.066-0.002,0.132-0.002,0.198c0,0.165,0.004,0.329,0.013,0.494c0.037,0.235,0.049,0.471,0.049,0.706
			c0,0.473-0.05,0.948-0.05,1.422c0,1.227,0.391,2.684,2.019,2.684c0.963,0,10.102-1.173,10.906-1.173
			c0.5,0,0.981,0.068,1.474,0.119c0.19,0.076,0.37,0.109,0.543,0.109c0.488,0,0.918-0.261,1.344-0.541
			c0.48-0.063,28.047-2.702,28.113-2.702c0.5,0,0.964,0.127,1.324,0.62c-0.001,0.098-0.002,0.195-0.002,0.292
			c0,1.043,0.077,2.084,0.077,3.127c0,2.127-0.324,2.565-0.324,3.236c0,0.953,0.614,1.496,1.573,1.496
			c0.318,0,0.169-0.009,1.801-0.242c-0.221,1.053-1.105,1.016-1.858,1.044c-2.18,0.08-20.48,1.008-22.413,2.416
			c-0.13,0.208-0.185,0.371-0.185,0.499c0,0.359,0.428,0.456,0.838,0.562c1.748-0.351,15.374-0.983,17.948-1.568
			c0.323-0.073,0.66-0.124,0.998-0.124c0.551,0,1.103,0.135,1.588,0.529c0.01,0.679,0.16,7.088,0.16,10.859
			c0,3.156-0.264,4.133-0.264,4.501c0,0.259,0.086,0.474,0.436,0.617l0,0l-0.004-0.006c-0.094,0.682-0.064,1.385-0.357,2.032
			c-0.118,0.059-0.177,0.117-0.177,0.176c0,0.059,0.059,0.118,0.177,0.176c0.32,0.404,0.374,0.861,0.374,1.324
			c0,1.478-0.189,6.396-0.189,9.251c0,3.402,0.204,5.043,0.204,5.339c0,0.789-0.375,1.502-0.375,2.275
			c0,0.109,0.006,0.134,0.006,0.192c0,0.101,0.007,0.202,0.021,0.302c0.229,0.281,0.358,0.6,0.358,0.899
			c0,0.66-0.507,0.687-0.507,1.055c0,0.218,0.192,0.408,0.192,0.599c0,0.055-0.016,0.109-0.057,0.165
			c0.008,0.032,0.011,0.064,0.011,0.096c0,0.289-0.277,0.571-0.277,0.86c0,0.134,0.06,0.27,0.236,0.408
			c0.2,0.312,0.259,0.637,0.259,0.966c0,0.473-0.122,0.954-0.122,1.419c0,0.133,0.044,1.164,0.044,2.682
			c0,1.594-0.049,3.19-0.153,4.782c0.003,0.115,0.007,0.229,0.01,0.344c0.129,1.146,0.167,2.296,0.167,3.446
			c0,1.068-0.033,2.136-0.057,3.201c-0.026,1.155-1.626,2.014-3.164,2.014c-0.352,0-1.268-0.007-2.389-0.859l0.004,0.004
			c-0.59-0.141-1.164-0.296-1.756-0.296c-1.026,0-1.094,0.377-1.993,0.377c-0.384,0-0.783-0.076-1.151-0.201
			c-6.181-2.092-11.819-0.862-32.555-5.145c-1.121-1.642-1.134-13.206-1.134-13.327c0-0.604,0.004-0.795,0.004-1.06
			c0-2.679-0.413-3.157-3.126-3.505c-20.66-2.649-59.357-8.184-60.77-8.184c-0.915,0-1.726,0.718-1.726,1.578
			c0,0.689,0.575,1.027,0.575,3.45c0,0.738-0.048,1.475-0.048,2.21c0,0.724,0.116,5.614,0.116,7.031c0,0.168-0.019,0.333-0.05,0.498
			c-0.056,0.261-0.161,0.495-0.361,0.677c-2.177-0.084-4.341-0.288-6.475-0.745c-0.113,0.002-0.227,0.004-0.34,0.006
			c-0.682-0.103-1.379-0.117-2.039-0.352l0.001,0c-2.479-0.439-4.989-0.644-7.476-1.024l0.004,0.002
			c-0.754-0.366-1.731,0.053-2.383-0.674c-0.339-0.003-0.677-0.007-1.016-0.01c-0.06-0.009-0.119-0.012-0.179-0.012
			c-0.271,0-0.542,0.072-0.812,0.072c-0.124,0-0.248-0.015-0.371-0.059l0.004,0.003c-0.744-0.4-1.607-0.39-2.381-0.687l0.006,0.003
			c-0.028,0-0.057,0-0.085,0c-2.46,0-4.776-1.063-7.238-1.063c-0.254,0-0.393,0.011-0.44,0.011c-0.267,0-0.518-0.139-0.742-0.3
			l-0.161-0.009l-0.161,0.001c-4.966-0.393-22.253-3.343-22.443-3.4l0.004,0.003c-12.424-1.836-12.125-1.814-12.919-2.367
			c-0.573-0.311-0.686-0.748-0.686-1.215c0-0.304,0.048-0.622,0.048-0.927c0-0.075-0.003-0.15-0.01-0.223
			c0.7-0.369-0.066-1.852,1.137-1.852c0.168,0,0.254,0.024,0.314,0.024c0.04,0,0.058-0.009,0.058-0.023
			c0-0.015-0.02-0.035-0.054-0.055c-1.294-0.753-0.551-2.495-1.627-3.364c0.025-0.762,0.034-1.524,0.034-2.286
			c0-2.389-0.093-4.776-0.093-7.164c0-1.93,0.068-3.128,0.068-4.756c0-1.22-0.044-2.44-0.204-3.656l0.003,0.005
			c-0.183-0.331-0.247-0.66-0.247-0.988c0-0.754,0.336-1.504,0.336-2.265c0-1.088-0.144-6.666-0.144-10.57
			c0-2.624,0.32-18.1,0.32-18.861c0-3.817-0.325-6.253-0.325-7.002c0-0.6,0.087-1.194,0.397-1.767l-0.003,0.003
			c0.03-0.181,0.043-0.36,0.043-0.538c0-1.068-0.461-2.101-0.461-3.168c0-0.237,0.023-0.477,0.078-0.718
			c0.112-0.339,0.225-0.678,0.337-1.017c-0.143-0.188-0.27-0.406-0.27-0.627c0-0.25,0.303-0.827,0.303-2.667
			c0-0.985-0.082-1.973-0.082-2.957c0-0.41,0.014-0.819,0.054-1.227c-0.124-0.816-0.191-1.632-0.191-2.447
			c0-0.768,0.06-1.537,0.187-2.305c-0.069-1.146-0.161-2.291-0.161-3.437c0-0.782,0.043-1.565,0.164-2.347l0.002,0.004
			c-0.002-0.116-0.003-0.232-0.003-0.347c0-1.044,0.075-2.082,0.075-3.13c0-1.908-0.268-2.346-0.268-4.048
			c0-3.365,1.334-4.437,2.913-5.042l-0.004,0.003c1.401-0.475,2.719-1.147,4.086-1.703c0.676-0.342,1.353-0.683,2.029-1.025
			c0.549-0.28,1.169-0.38,1.713-0.672c0.221-0.114,0.443-0.229,0.664-0.343c1.477-1.147,3.474-1.067,4.996-2.187
			c1.12-0.824,2.468-1.292,3.861-1.544c0.22-0.116,0.44-0.233,0.66-0.349c0.885-0.13,1.589-0.685,2.39-1.014
			c0.032,0.001,0.063,0.002,0.095,0.002c0.079,0,0.157-0.004,0.236-0.011c3.307-1.787,6.82-3.133,10.208-4.746
			c0.448-0.231,0.897-0.462,1.345-0.693c2.243-0.965,4.477-1.951,6.804-2.705l-0.004,0.003c0.843-0.591,1.79-0.972,2.733-1.361
			c0.067,0.008,0.132,0.011,0.196,0.011c0.688,0,1.235-0.414,1.825-0.702c2.047-1.244,4.273-2.107,6.461-3.052l-0.003,0.002
			c1.522-1.134,3.439-1.275,5.109-2.038c0.449-0.229,0.898-0.458,1.347-0.688c1.695-0.681,3.268-1.666,5.087-2.036
			c0.116-0.114,0.233-0.227,0.349-0.341c0.147-0.017,16.64-6.581,22.018-9.674c0.245-0.141,16.898-7.037,17.951-7.678
			c3.085-1.875,6.893-2.235,9.669-4.715c0.674,0.003,0.808,0.335,0.808,0.725c0,0.279-0.291,2.549-0.291,7.088
			c0,5.468,0.459,12.054,0.459,15.257c0,1.849-0.088,3.696-0.088,5.544c0,3.825,0.352,3.904,0.352,6.886
			c0,1.63-0.116,2.456-0.116,2.88c0,0.947,0.375,1.371,1.202,1.371c0.791,0,2.328-0.525,7.392-0.965
			c0.719-0.14,1.418-0.349,2.104-0.603c1.671-0.249,3.367-0.128,5.048-0.463c0.12-0.024,0.236-0.035,0.349-0.035
			c0.968,0,1.663,0.838,1.663,1.87c0,1.151-1.738,3.95-1.738,7.42c0,0.757,0.075,1.109,0.075,1.294c0,0.804-0.777,1.327-0.905,2.171
			c-0.329,2.174-0.373,4.384-0.869,6.537c-0.052,0.224-0.101,0.48-0.101,0.724c0,0.812,0.598,0.959,0.853,0.959
			c0.553,0,0.813-0.652,1.079-1.081c2.529-4.075,5.628-7.753,8.192-11.802c1.006-1.03,1.904-2.138,2.514-3.457
			c0.526-0.55,0.765-1.313,1.341-1.827c0.367-0.415,0.735-0.828,0.953-1.35c1.201-3.507,4.107-4.069,7.271-4.282
			C431.447,139.57,450.661,136.827,451.179,136.827z"/>
		<path fill="#87A8B9" d="M462.156,244.42c0.081,0,0.162,0.003,0.242,0.003c0.123,0,0.244-0.007,0.357-0.042
			c0.867,0.262,1.746,0.326,2.628,0.326c0.841,0,1.685-0.058,2.522-0.058c1.452,0,9.196,0.054,14.081,0.054
			c11.607,0,17.152-0.327,36.322-0.327c3.653,0,4.816,2.583,4.816,7.346c0,0.127-1.819,44.907-2.925,48.346
			c-0.517,0.618-0.933,1.333-1.665,1.747c-0.402,0.098-0.803,0.155-1.204,0.155c-0.386,0-0.771-0.053-1.156-0.175
			c-15.734-2.651-50.347-9.011-51.077-9.19c-0.213-0.155-0.445-0.191-0.683-0.191c-0.207,0-0.419,0.027-0.626,0.027
			c-0.216,0-0.427-0.03-0.623-0.15c-0.205-0.018-0.41-0.036-0.615-0.053c-0.461-0.222-1.004-0.115-1.459-0.363
			c-1.784-0.015-2.064-1.456-2.064-2.538c0-0.352,0.031-0.574,0.031-1.419c0-1.625-0.137-3.248-0.137-4.87
			c0-0.783,0.032-1.565,0.127-2.347c-0.01-0.049-0.014-0.099-0.014-0.148c0-0.36,0.235-0.714,0.235-1.074
			c0-0.161-0.047-0.324-0.184-0.488c-0.003-2.138-0.006-4.275-0.009-6.413c0.157-0.254,0.192-0.522,0.192-0.794
			c0-0.228-0.025-0.458-0.025-0.686c0-0.183,0.016-0.364,0.074-0.54c0.108-0.413,0.134-0.478,0.134-0.665
			c0-0.413-0.19-0.824-0.19-1.237c0-0.175,0.034-0.35,0.13-0.525c0.025-0.257,0.035-0.514,0.035-0.772
			c0-1.278-0.255-2.561-0.255-3.839c0-0.74,0.085-1.478,0.355-2.213c0.267-0.425,0.356-0.852,0.356-1.28
			c0-0.852-0.352-1.708-0.352-2.562c0-0.342,0.053-0.493,0.053-0.579c0-0.2-0.125-0.446-0.125-0.607c0-0.205,0.56-0.403,0.56-1.088
			c0-0.555-0.402-1.097-0.535-1.647c-0.018-0.12-0.036-0.24-0.053-0.36c0.195-0.497,0.279-0.997,0.279-1.497
			c0-0.514-0.088-1.029-0.232-1.544c0.015-0.566,0.031-1.131,0.046-1.697c0.327-0.068,0.422-0.191,0.422-0.336
			c0-0.201-0.182-0.445-0.182-0.647c0-0.017,0.001-0.033,0.004-0.049c-0.109-0.29-0.35-0.575-0.35-0.868
			c0-0.168,0.079-0.338,0.309-0.513c0.801-0.152,1.111-0.943,1.732-1.33C461.652,244.451,461.9,244.42,462.156,244.42z"/>
		<path fill="#F5C05C" d="M342.457,268.22c0-0.143,0.01-0.286,0.038-0.429c0.015-0.212,0.031-0.423,0.046-0.635
			c0.132-0.068,0.198-0.136,0.198-0.205c0-0.068-0.066-0.137-0.198-0.205c0-0.074,0-0.147,0-0.221c0-2.113-0.126-4.225-0.126-6.339
			c0-2.051,0.112-2.722,0.112-3.193c0-1.476-0.748-1.585-0.748-2.677c0-0.614,0.591-2.345,1.944-2.345
			c0.1,0,27.594,3.591,27.716,3.608c2.75,0.396,5.468,1.292,8.214,1.359c3.189,0.078,6.249,0.965,9.413,1.023
			c0.392,0.007,0.796,0.03,1.172,0.131c3.858,1.036,7.861,1.049,11.782,1.641c4.75,0.717,6.389-0.14,6.389,4.586
			c0,0.252-0.009,1.616-0.009,2.654c0,7.944,0.697,9.428,0.697,10.357c0,0.348-0.079,0.681-0.27,1
			c-0.101,0.189-0.217,0.373-0.217,0.598c0,0.011,0.001,0.016,0.001,0.037c0,0.283-0.174,0.588-0.174,0.871
			c0,0.193,0.081,0.376,0.352,0.535c0.495,0.532,0.597,1.156,0.597,1.787c0,0.448-0.052,0.9-0.052,1.325
			c0,1.061,0.801,10.562,0.801,12.715c0,0.273-0.003,0.546-0.009,0.818c0.01,0.043,0.014,0.086,0.014,0.129
			c0,0.213-0.101,0.425-0.101,0.638c0,0.099,0.022,0.197,0.085,0.296c0.008,0.087,0.011,0.175,0.011,0.263
			c0,0.29-0.034,0.585-0.034,0.875c0,0.39,0.062,0.77,0.352,1.118c-0.11,0.373-0.172,0.746-0.172,1.118
			c0,0.354,0.057,0.708,0.183,1.062c0.001,0.56,0.01,1.12,0.01,1.68c0,0.305,0.22,3.084-1.931,3.084
			c-1.154,0-0.706-0.64-3.099-0.769c-0.159-0.322-0.5-0.168-0.738-0.283c-17.561-5.382-16.591-5.416-19.384-6.451
			c-0.35-0.031-0.67-0.163-0.988-0.3c-3.613-1.177-7.226-2.354-10.839-3.532c-0.518-0.414-1.243-0.197-1.77-0.583
			c-1.315-0.362-2.63-0.723-3.946-1.085c-0.12-0.456-0.392-0.62-0.749-0.62c-0.112,0-0.233,0.016-0.36,0.045
			c-6.254-1.987-12.516-3.951-18.682-6.204c-0.448-0.189-0.908-0.349-1.356-0.538c-0.941-0.308-4.132-0.289-4.132-2.351
			c0-0.137,0.013-0.284,0.039-0.441c0.137-0.4,0.171-0.807,0.171-1.217c0-0.388-0.03-0.778-0.03-1.167
			c0-0.352,0.025-0.701,0.118-1.046c-0.007-0.358-0.014-0.717-0.021-1.075c-0.071-0.181-0.087-0.369-0.087-0.559
			c0-0.155,0.011-0.311,0.011-0.467c0-0.243-0.026-0.482-0.159-0.706c-0.017-3.04-0.034-6.079-0.051-9.119
			C342.476,268.614,342.457,268.417,342.457,268.22z"/>
		<path fill="#87A8B9" d="M269.996,241.694c0,1.566-0.06,3.131-0.196,4.696c0.015,0.214,0.021,0.428,0.021,0.642
			c0,1.27-0.226,2.529-0.226,3.811c0,1.153,0.161,1.391,0.161,2.01c0,1.022-0.507,1.541-1.397,1.541
			c-1.277,0-4.646-1.758-8.422-2.225c-0.4-0.306-0.878-0.231-1.332-0.276c-2.654-1.088-5.48-1.619-8.188-2.525
			c-1.225-0.41-2.829-0.225-3.365-1.889c0.138-0.464,0.175-0.935,0.175-1.408c0-0.542-0.048-1.088-0.048-1.631
			c0-0.486,0.039-0.969,0.187-1.445c0.008-2.131,0.017-4.263,0.025-6.394c0.138-0.386,0.175-0.782,0.175-1.18
			c0-0.449-0.046-0.902-0.046-1.351c0-0.429,0.042-0.854,0.208-1.268l-0.015,0.02c0.357-0.113,0.809,0.073,1.068-0.344
			c2.756-0.19,18.253-2.495,19.298-2.495c0.391,0,0.733,0.081,1.035,0.449c0.206,0.106,0.262,0.252,0.262,0.412
			c0,0.188-0.077,0.395-0.077,0.583c0,0.132,0.038,0.254,0.167,0.353c-0.003,0.057-0.005,0.114-0.005,0.171
			c0,0.053,0.001,0.106,0.004,0.159c-0.002,0.046-0.003,0.092-0.003,0.137c0,0.708,0.194,1.444,0.194,2.151
			c0,0.647-0.162,1.27-0.783,1.828c0.278,0.229,0.672,0.315,0.84,0.68l0.113-0.034C269.932,238.481,269.996,240.088,269.996,241.694
			z"/>
		<path fill="#88A9BA" d="M335.722,115.217c0.685-0.15,38.3-16.431,38.565-16.626c1.103-0.813,3.083-1.43,3.562-1.43
			c0.775,0,1.052,0.657,1.052,1.244c0,0.528-0.32,0.903-1.004,1.232c-0.121,0.058-16.599,7.795-18.671,8.149
			c-0.559,0.665-1.438,0.31-2.097,0.658c-3.517,2.37-1.928,0.859-19.455,9.133c-3.019,0.853-24.385,10.811-24.729,10.941
			c-0.101-0.051-0.184-0.073-0.255-0.073c-0.402,0-0.405,0.691-0.807,0.691c-0.004,0-0.008,0-0.011,0
			c-7.445,2.177-6.384,3.226-9.098,3.432c-0.333,0.234-0.742,0.333-1.059,0.596c-0.114,0.097-0.227,0.195-0.341,0.292
			c-0.353,0.438-0.982,0.4-1.364,0.789c-5.777,1.85-26.113,11.757-28.736,11.757c-0.674,0-0.741-0.728-0.741-0.941
			c0-0.759,0.166-0.602,6.411-3.713c0.339-0.102,0.563-0.352,0.783-0.609c4.416-0.95,9.647-4.753,14.835-6.133
			c0.09-0.059,0.178-0.08,0.266-0.08c0.22,0,0.435,0.132,0.655,0.132c0.043,0,0.086-0.005,0.129-0.017
			c1.1-1.389,2.514-2.181,4.213-2.771c3.209-1.115,13.83-6.178,15.801-6.716c0.066,0.013,0.129,0.019,0.189,0.019
			c0.514,0,0.809-0.441,1.19-0.708C322.398,120.802,323.739,120.865,335.722,115.217z"/>
		<path fill="#87A8B9" d="M432.631,289.242c0.098,0,0.197-0.003,0.295-0.006c2.768,0.9,5.69,0.976,8.511,1.594
			c0.182-0.062,0.341-0.089,0.48-0.089c0.849,0,1.009,1.01,1.543,1.471c0.754-0.416,1.661-0.617,2.584-0.617
			c1.412,0,2.859,0.469,3.847,1.352c0.121,0.233,0.175,0.436,0.175,0.614c0,0.49-0.403,0.798-0.924,1.054
			c-2.047-0.076-2.687-0.281-14.17-2.392c-0.128-0.149-0.276-0.189-0.432-0.189c-0.187,0-0.384,0.058-0.571,0.058
			c-0.132,0-0.258-0.029-0.371-0.128c-0.121,0.021-0.24,0.031-0.357,0.031c-1.038,0-1.917-0.751-2.955-0.751
			c-0.03,0-0.059,0.001-0.089,0.002c-0.762-0.291-1.56-0.258-2.354-0.266c-6.101-1.181-5.953-1.088-8.724-1.918
			c-0.539-0.161-0.795-0.522-0.795-1.038c0-0.846,0.469-0.878,0.681-0.878c1.668,0,11.148,2.083,12.811,2.083
			c0.137,0,0.273-0.003,0.411-0.009C432.361,289.237,432.496,289.242,432.631,289.242z"/>
		<path fill="#FDFDFD" d="M273.5,191.537c0-0.483,0.123-0.939,0.72-1.211c0.005,0.123,0.186,11.982,0.186,12.025
			c0,2.086-0.242,4.241-0.242,6.323c0,0.181,0.007,1.257,0.007,3.499c0,2.155-0.006,4.31-0.006,6.466
			c0,5.938,0.046,6.708,0.046,8.284c0,1.623-0.057,3.245-0.329,4.856c-0.276-0.286-0.362-0.583-0.362-0.885
			c0-0.488,0.223-0.988,0.223-1.471c0-0.302-0.152-0.795-0.152-2.197c0-1.763,0.258-3.525,0.258-5.288
			c0-2.176-0.366-2.273-0.366-5.26c0-2.298,0.257-4.598,0.257-6.895c0-0.96-0.01-2.233-0.01-3.353c0-4.494,0.167-4.427,0.167-7.029
			C273.898,195.968,273.5,191.947,273.5,191.537z"/>
		<path fill="#FDFDFD" d="M408.639,278.766c-0.058,0-0.109-0.045-0.154-0.14c0.113-0.099,0.227-0.198,0.341-0.297
			c28.297,4.055,18.229,3.057,29.268,4.206c1.634,0.17,3.209,0.969,4.884,0.969c1.254,0,1.528-0.362,2.034-0.362
			c0.469,0,1.092,0.225,1.501,0.623c-3.905,0.12-2.738,0.409-3.959,0.409c-1.254,0-5.305-1.886-12.194-1.886
			c-0.112,0-0.159,0.001-0.187,0.001c-1.299,0-2.412-0.812-3.719-0.971c-17.228-2.105-16.421-2.324-17.655-2.647
			C408.742,278.733,408.689,278.766,408.639,278.766z"/>
		<path fill="#FDFDFD" d="M287.81,259.635c0.349-0.084,0.695-0.117,1.038-0.117c0.301,0,9.725,1.347,21.405,3.518
			c-0.226,0.006-0.451,0.009-0.676,0.009c-3.662,0-7.217-0.784-10.801-1.453C288.369,259.649,288.328,260.847,287.81,259.635z"/>
		<path fill="#FDFDFD" d="M452.662,258.753c0,0.902-0.164,1.786-0.727,2.602c-0.23-0.251-0.309-0.501-0.309-0.75
			c0-0.538,0.366-1.073,0.366-1.617c0-0.679-0.037,1.907-0.076-15.988c0.619,0.25,0.719,0.719,0.719,1.219
			c0,0.657-0.357,7.448-0.357,8.913C452.278,255.926,452.662,257.435,452.662,258.753z"/>
		<path fill="#FDFDFD" d="M273.727,239.136c0-2.455,0.054-4.909,0.153-7.364c0.301,0.249,0.35,0.561,0.35,0.883
			c0,0.154-0.011,0.311-0.011,0.464c0,0.142,0.032,0.997,0.032,2.857c0,1.694-0.025,3.388-0.025,5.082
			c0,4.292,0.196,5.828,0.196,6.158c0,0.525-0.191,1.063-0.191,1.593c0,0.332,0.075,0.661,0.318,0.982
			c0.035,0.509,0.209,1.018,0.209,1.527c0,0.284-0.054,0.568-0.217,0.851c-0.528-0.072-0.879-0.226-0.879-0.849
			c0-0.296,0.211-2.876,0.211-4.808C273.871,245.085,273.727,243.494,273.727,239.136z"/>
		<path fill="#FDFDFD" d="M276.939,154.31c-1.789,1.195-2.55,2.586-2.55,4.768c0,1.474,0.384,3.198,0.384,4.869
			c0,0.988-0.132,1.975-0.551,2.93c0.004-0.16,0.006-0.319,0.006-0.479c0-2.209-0.347-4.411-0.347-6.625
			C273.88,155.737,274.648,154.731,276.939,154.31z"/>
		<path fill="#8DACBD" d="M459.209,256.152c0-0.868,0.071-1.737,0.277-2.607c0.966,1.077,1.209,1.321,1.209,1.496
			c0,0.345-1.147,0.751-1.147,2.334c0,1.466,1.005,1.642,1.005,2.608c0,0.515-0.406,0.902-1.024,1.325
			C459.486,259.589,459.209,257.871,459.209,256.152z"/>
		<path fill="#FDFDFD" d="M449.354,284.816c-1.028,0-2.116-0.342-2.846-1.054c0.013,0,0.025-0.001,0.037-0.001
			c0.717,0,1.093,0.583,1.942,0.583c2.302,0,3.51-0.84,3.51-2.662c0-1.039-0.283-1.344-0.283-2.27c0-0.955,0.293-1.863,0.293-2.79
			c0-0.219-0.016-0.44-0.057-0.663c0.364,1.17,0.497,2.361,0.497,3.549c0,1.198-0.135,2.394-0.304,3.565
			C451.98,284.212,450.721,284.816,449.354,284.816z"/>
		<path fill="#FDFDFD" d="M274.895,257.271c7.234,1.926,12.43,1.699,12.919,2.367c-0.421,0.215-0.831,0.296-1.235,0.296
			c-1.206,0-2.359-0.717-3.591-0.726c-2.244-0.017-4.487-0.68-6.722-1.109C275.738,257.997,275.134,257.903,274.895,257.271z"/>
		<path fill="#D4ECF3" d="M274.547,252.357c0-0.063-0.002-0.125-0.007-0.188c-0.15-0.4-0.228-0.799-0.228-1.198
			c0-0.394,0.076-0.787,0.236-1.18c0.516,0.575,0.936,1.179,0.936,1.865c0,0.266-0.063,0.544-0.208,0.838
			c0.089,0.083,0.181,0.115,0.274,0.115c0.304,0,0.614-0.342,0.841-0.342c0.255,0,0.292,0.476,0.292,0.518
			c0,0.368-0.332,0.621-0.783,0.621c-0.316,0-0.449-0.105-0.622-0.105c-0.291,0-0.187,0.341-0.26,0.607
			c-0.017,0.06-0.021,0.132-0.021,0.211c0,0.103,0.008,0.216,0.008,0.326c0,0.273-0.049,0.521-0.395,0.521
			c-0.096,0-0.215-0.019-0.362-0.062c-0.01-0.233-0.021-0.465-0.031-0.698c-0.16-0.22-0.224-0.421-0.224-0.611
			c0-0.398,0.284-0.742,0.552-1.088C274.545,252.458,274.547,252.408,274.547,252.357z"/>
		<path fill="#FDFDFD" d="M307.871,140.719c-3.262,1.885-6.698,3.394-10.208,4.746c0.482-1.053,1.664-1.217,2.489-1.52
			C302.778,142.982,305.041,141.16,307.871,140.719z"/>
		<path fill="#FDFDFD" d="M312.999,263.639c-0.428,0-0.928,0.189-1.382,0.189c-0.419,0-0.798-0.162-1.042-0.786
			c0.239-0.02,0.477-0.029,0.714-0.029c2.481,0,4.844,1.005,7.328,1.005c0.093,0,0.163-0.001,0.165-0.001
			c0.097,0,0.198,0.246,0.298,0.377c-0.531,0.243-1.046,0.338-1.551,0.338C315.994,264.732,313.907,263.639,312.999,263.639z"/>
		<path fill="#FDFDFD" d="M294.283,146.838c-2.635,0.735-4.673,2.89-7.511,3.151c-0.473,0.044-0.751,0.586-1.257,0.586
			c-0.029,0-0.058-0.002-0.089-0.005c0.055-0.097,0.091-0.259,0.168-0.283C288.59,149.384,290.995,146.995,294.283,146.838z"/>
		<path fill="#FDFDFD" d="M452.402,272.957c0,0.898-0.095,1.793-0.461,2.659c-0.209-0.745-0.297-1.546-0.297-2.31
			c0-1.336,0.206-1.43,0.206-3.122c0-0.876-0.058-1.748-0.058-2.617c0-0.601,0.028-1.201,0.122-1.801
			c0.4,0.675,0.505,1.384,0.505,2.102c0,0.785-0.125,1.579-0.125,2.347C452.293,270.975,452.402,272.018,452.402,272.957z"/>
		<path fill="#FDFDFD" d="M336.433,267.123c2.044,0,4.063,0.24,6.062,0.668c0.134,0.178,0.214,0.357,0.214,0.534
			c0,0.162-0.066,0.324-0.218,0.486c-1.552-1.165-3.436-0.802-5.174-1.086c-0.073-0.012-0.147-0.016-0.221-0.016
			c-0.133,0-0.266,0.012-0.39,0.012c-0.31,0-0.568-0.075-0.644-0.596C336.186,267.124,336.31,267.123,336.433,267.123z"/>
		<path fill="#FDFDFD" d="M332.342,266.825c-2.094,0-4.141-0.337-6.134-1.069c0.148,0.01,0.296,0.014,0.444,0.014
			c0.403,0,0.809-0.027,1.212-0.027c1.338,0,1.526,0.331,1.887,0.331c0.171,0,0.303-0.1,0.303-0.442
			c0-0.252,0.179-0.443,0.329-0.443c0.067,0,0.128,0.038,0.165,0.125c0.624,1.475,2.18,0.81,3.136,1.466
			C333.234,266.81,332.787,266.825,332.342,266.825z"/>
		<path fill="#FDFDFD" d="M327.23,132.22c-2.021,1.298-4.197,2.268-6.461,3.052c0.021-0.35,0.11-0.785,0.441-0.839
			C323.367,134.087,324.963,132.237,327.23,132.22z"/>
		<path fill="#FDFDFD" d="M273.81,178.378c0-0.347,0.089-0.69,0.411-0.97c0.202,0.999,0.273,1.998,0.273,2.997
			c0,1.494-0.159,2.988-0.278,4.482c-0.406-0.172-0.51-0.407-0.51-0.686c0-0.185,0.319-1.882,0.319-3.433
			C274.024,179.36,273.81,178.946,273.81,178.378z"/>
		<path fill="#FDFDFD" d="M316.02,137.32c-2.186,1.108-4.417,2.102-6.804,2.705c0.286-1.183,1.495-0.723,2.22-1.153
			C312.802,138.064,314.33,137.352,316.02,137.32z"/>
		<path fill="#87A8B9" d="M270.19,245.387c0,0.356-0.078,0.704-0.39,1.004c0.008-3.172,0.016-6.344,0.024-9.516
			c0.29,1.023,0.368,2.055,0.368,3.089c0,1.184-0.101,2.372-0.101,3.556C270.09,244.775,270.19,244.925,270.19,245.387z"/>
		<path fill="#87A8B9" d="M269.815,234.103c0,0.813-0.112,1.633-0.112,2.446c0,0.12,0.002,0.24,0.008,0.36
			c-0.99-0.208-1.237-0.725-1.237-0.758c0-0.081,0.127-0.128,0.453-0.172c0.309-0.042,0.363-0.193,0.363-0.367
			c0-0.091-0.015-0.189-0.015-0.279c0-0.194,0.106-0.285,0.106-0.789c0-0.498-0.119-1.004-0.119-1.502
			c0-0.313,0.047-0.624,0.2-0.928C269.739,232.767,269.815,233.433,269.815,234.103z"/>
		<path fill="#FDFDFD" d="M452.719,262.973c0,0.478-0.289,0.954-0.776,1.429c-0.398-0.299-0.796-0.597-1.422-1.067
			c0.038,0.001,0.076,0.002,0.113,0.002c1.017,0,1.381-0.44,1.381-1.123c0-0.163-0.021-0.34-0.058-0.529
			C452.486,262.115,452.719,262.545,452.719,262.973z"/>
		<path fill="#FDFDFD" d="M273.798,169.869c0-0.999,0.152-1.998,0.422-2.997c0.004,1.276,0.17,2.553,0.17,3.829
			c0,0.651-0.043,1.303-0.173,1.954C273.929,171.727,273.798,170.798,273.798,169.869z"/>
		<path fill="#FDFDFD" d="M332.337,130.184c-1.556,1.048-3.433,1.292-5.109,2.038C328.559,130.61,330.542,130.632,332.337,130.184z"
			/>
		<path fill="#FDFDFD" d="M338.771,127.46c-1.715,0.63-3.224,1.774-5.087,2.036C335.205,128.381,336.825,127.513,338.771,127.46z"/>
		<path fill="#FDFDFD" d="M273.55,187.19c0-0.42,0.088-0.847,0.328-1.286c0.14,1.073,0.534,2.126,0.534,3.209
			c0,0.4-0.054,0.805-0.194,1.216C274.115,189.274,273.55,188.254,273.55,187.19z"/>
		<path fill="#FDFDFD" d="M281.02,152.61c-1.224,0.898-2.562,1.524-4.086,1.703C278.235,153.598,279.471,152.727,281.02,152.61z"/>
		<path fill="#92B0BF" d="M459.48,250.144c0.315,0.561,0.565,1.122,0.565,1.679c0,0.457-0.169,0.912-0.612,1.363
			C459.449,252.172,459.464,251.158,459.48,250.144z"/>
		<path fill="#92B0BF" d="M461.417,244.704c0.014,0,0.029,0,0.043,0c-0.343,0.528-0.352,1.492-1.101,1.492
			c-0.169,0-0.375-0.049-0.631-0.163C460.015,245.232,460.513,244.704,461.417,244.704z"/>
		<path fill="#87A8B9" d="M247.072,246.935c0-0.67-0.08-1.346-0.08-2.016c0-0.65,0.075-1.295,0.373-1.924
			c-0.014,0.211-0.019,0.422-0.019,0.634c0,0.562,0.035,1.126,0.035,1.688c0,0.728-0.059,1.452-0.33,2.161
			C247.066,247.298,247.072,247.116,247.072,246.935z"/>
		<path fill="#F7D086" d="M407.942,279.848c0-0.368,0.544-0.829,0.544-1.197c0-0.008,0-0.017-0.001-0.025
			c0.104,0.024,0.208,0.038,0.315,0.043c0.175,0.289,0.27,0.577,0.27,0.865c0,0.28-0.09,0.559-0.282,0.837
			C408.143,280.26,407.942,280.071,407.942,279.848z"/>
		<path fill="#92B0BF" d="M459.489,248.004c0-0.218,0.054-0.424,0.28-0.589c0.119,0.116,0.272,0.214,0.35,0.353
			c0.151,0.273,0.639,0.464,0.639,0.768c0,0.174-0.207,0.425-0.372,0.425c-0.265,0-0.452-0.527-0.774-0.527
			c-0.028,0-0.057,0.004-0.087,0.013C459.513,248.3,459.489,248.149,459.489,248.004z"/>
		<path fill="#87A8B9" d="M442.252,290.614c0.766,0,1,0.78,1.208,1.597c-0.839-0.141-0.92-1.394-1.856-1.394
			c-0.053,0-0.109,0.004-0.168,0.013C441.762,290.68,442.03,290.614,442.252,290.614z"/>
		<path fill="#FDFDFD" d="M318.748,135.963c-0.808,0.66-1.728,1.095-2.733,1.361C316.697,136.409,317.636,136.012,318.748,135.963z"
			/>
		<path fill="#87A8B9" d="M269.785,231.193c0,0.168-0.093,0.36-0.323,0.589c-0.057-0.01-0.116-0.014-0.177-0.014
			c-0.13,0-0.265,0.016-0.399,0.016c-0.249,0-0.496-0.057-0.703-0.382c0.282-0.22,1.098-0.013,1.098-0.48
			c0-0.116-0.05-0.273-0.172-0.489C269.466,230.653,269.785,230.881,269.785,231.193z"/>
		<path fill="#87A8B9" d="M247.409,236.163c0-0.569-0.083-1.145-0.083-1.714c0-0.561,0.08-1.114,0.399-1.647
			c-0.029,0.266-0.037,0.533-0.037,0.801c0,0.365,0.016,0.731,0.016,1.096c0,0.643-0.048,1.282-0.314,1.901
			C247.403,236.455,247.409,236.309,247.409,236.163z"/>
		<path fill="#D0DDE3" d="M459.027,269.165c0-0.343,0.128-0.687,0.367-1.033c-0.024,0.061-0.034,0.121-0.034,0.181
			c0,0.422,0.508,0.838,0.508,1.26c0,0.2-0.114,0.401-0.449,0.605C459.152,269.842,459.027,269.504,459.027,269.165z"/>
		<path fill="#FDFDFD" d="M342.552,283.79c0-0.517-0.065-1.04-0.065-1.557c0-0.506,0.063-1.008,0.311-1.496
			c-0.01,0.123-0.015,0.246-0.015,0.369c0,0.535,0.079,1.076,0.079,1.611c0,0.491-0.067,0.977-0.323,1.449
			C342.549,284.041,342.552,283.916,342.552,283.79z"/>
		<path fill="#87A8B9" d="M429.859,291.224c-0.325,0-0.655,0.046-0.979,0.046c-0.357,0-0.707-0.056-1.037-0.292
			c0.277-0.185,0.541-0.255,0.796-0.255c0.539,0,1.043,0.311,1.558,0.521C430.085,291.23,429.973,291.224,429.859,291.224z"/>
		<path fill="#FAE3B5" d="M372.837,296.008c-0.442,0-0.84-0.133-1.112-0.648c0.046,0.006,0.092,0.009,0.14,0.009
			c0.279,0,0.587-0.09,0.866-0.09c0.328,0,0.614,0.124,0.764,0.665C373.272,295.978,373.05,296.008,372.837,296.008z"/>
		<path fill="#98B4C3" d="M314.767,124.427c0.072,0,0.151,0.012,0.237,0.039c0,0.004,0,0.008,0,0.012
			c0,0.665-0.242,0.846-0.574,0.846c-0.24,0-0.527-0.095-0.805-0.169C314.049,124.998,314.265,124.427,314.767,124.427z"/>
		<path fill="#FDFDFD" d="M297.235,145.472c0.032,0,0.064,0.001,0.097,0.002c-0.594,0.559-1.22,1.04-2.052,1.04
			c-0.109,0-0.222-0.008-0.338-0.026C295.683,146.094,296.327,145.472,297.235,145.472z"/>
		<path fill="#FDFDFD" d="M273.582,253.386c0-0.354,0.421-0.627,0.96-0.878c-0.109,0.566-0.219,1.133-0.328,1.699
			C273.764,253.888,273.582,253.619,273.582,253.386z"/>
		<path fill="#FDFDFD" d="M321.248,265.081c-0.791,0-1.544-0.135-2.175-0.69c0.15-0.001,0.301-0.004,0.451-0.004
			c0.71,0,1.401,0.065,1.93,0.691C321.385,265.08,321.317,265.081,321.248,265.081z"/>
		<path fill="#FDFDFD" d="M325.909,265.739c-0.282,0-0.575,0.039-0.857,0.039c-0.473,0-0.915-0.109-1.223-0.694
			c0.758,0.352,1.684,0.113,2.383,0.674C326.113,265.744,326.012,265.739,325.909,265.739z"/>
		<path fill="#FDFDFD" d="M335.101,267.387c-0.508,0-0.931-0.488-1.418-0.607c0.185-0.004,0.37-0.01,0.554-0.01
			c0.516,0,1.023,0.051,1.485,0.361C335.497,267.317,335.293,267.387,335.101,267.387z"/>
		<path fill="#FDFDFD" d="M517.35,302.177c-0.392,0-0.784-0.124-1.174-0.382c0.787,0.006,1.574,0.013,2.36,0.019
			C518.139,302.052,517.744,302.177,517.35,302.177z"/>
		<path fill="#FDFDFD" d="M322.129,265.441c-0.226,0-0.453-0.121-0.679-0.366c0.279-0.109,0.557-0.305,0.836-0.305
			c0.175,0,0.351,0.078,0.526,0.304C322.585,265.318,322.357,265.441,322.129,265.441z"/>
		<path fill="#87A8B9" d="M450.25,293.844c0,0.423-0.36,0.684-1.108,0.771c0.357-0.402,0.801-0.764,0.801-1.326
			c0-0.107-0.016-0.22-0.051-0.343C450.128,293.299,450.25,293.598,450.25,293.844z"/>
		<path fill="#FDFDFD" d="M452.441,241.298c0,0.481-0.244,0.919-0.526,1.35c0.044-0.69-0.032-1.402,0.357-2.032
			C452.391,240.855,452.441,241.081,452.441,241.298z"/>
		<path fill="#87A8B9" d="M434.481,292.395c-0.321,0-0.601-0.217-0.882-0.431c0.052,0.097,0.115,0.135,0.185,0.135
			c0.261,0,0.622-0.53,0.883-0.53c0.143,0,0.256,0.16,0.306,0.654C434.796,292.345,434.634,292.395,434.481,292.395z"/>
		<path fill="#FDFDFD" d="M458.855,280.247c0-0.348,0.271-0.691,0.271-1.039c0-0.071-0.011-0.143-0.039-0.215
			c0.211,0.255,0.296,0.507,0.296,0.757c0,0.32-0.139,0.637-0.332,0.953C458.905,280.549,458.855,280.397,458.855,280.247z"/>
		<path fill="#87A8B9" d="M248.411,232.468c0.121,0,0.245,0.01,0.367,0.012c-0.064,0.495-0.213,0.724-0.437,0.724
			c-0.17,0-0.382-0.132-0.631-0.381C247.884,232.518,248.139,232.468,248.411,232.468z"/>
		<path fill="#FDFDFD" d="M284.601,150.909c0.053,0,0.107,0.001,0.162,0.004c-0.414,0.466-0.927,0.679-1.524,0.679
			c-0.062,0-0.125-0.002-0.189-0.007C283.46,151.087,283.995,150.909,284.601,150.909z"/>
		<path fill="#FDFDFD" d="M410.464,302.514c-0.255-0.343-0.364-0.688-0.364-1.032c0-0.382,0.134-0.764,0.353-1.147
			C410.457,301.061,410.461,301.787,410.464,302.514z"/>
		<path fill="#FDFDFD" d="M459.096,272.284c0-0.269-0.035-0.542-0.035-0.811c0-0.315,0.048-0.624,0.259-0.914
			c-0.009,0.061-0.013,0.124-0.013,0.186c0,0.345,0.118,0.704,0.118,1.049c0,0.276-0.075,0.542-0.347,0.785
			C459.091,272.482,459.096,272.383,459.096,272.284z"/>
		<path fill="#FDFDFD" d="M293.078,134.272c0.182,0,0.359,0.126,0.533,0.37c-0.119,0.311-0.232,0.416-0.341,0.416
			c-0.227,0-0.44-0.456-0.667-0.456c-0.014,0-0.028,0.002-0.042,0.005C292.737,134.381,292.909,134.272,293.078,134.272z"/>
		<path fill="#FDFDFD" d="M464.828,292.587c-0.251,0-0.509,0.038-0.76,0.038c-0.318,0-0.627-0.06-0.901-0.333
			c0.062,0.004,0.124,0.006,0.187,0.006c0.233,0,0.469-0.022,0.702-0.022c0.366,0,0.723,0.054,1.044,0.33
			C465.01,292.592,464.919,292.587,464.828,292.587z"/>
		<path fill="#87A8B9" d="M259.768,252.161c-0.143,0-0.288,0.012-0.431,0.012c-0.264,0-0.519-0.042-0.733-0.281
			c0.203-0.129,0.391-0.19,0.567-0.19c0.287,0,0.541,0.164,0.765,0.467C259.881,252.163,259.825,252.161,259.768,252.161z"/>
		<path fill="#AAC2CE" d="M301.92,133.182c-0.065,0-0.134-0.006-0.206-0.018c0.086-0.534,0.433-0.601,0.819-0.601
			c0.079,0,0.16,0.003,0.24,0.005C302.592,132.955,302.32,133.182,301.92,133.182z"/>
		<path fill="#FDFDFD" d="M366.67,293.7c0.21-0.075,0.41-0.131,0.581-0.131c0.298,0,0.508,0.17,0.528,0.706
			C367.41,294.084,367.04,293.892,366.67,293.7z"/>
		<path fill="#FDFDFD" d="M410.402,297.401c0,0.226-0.215,0.451-0.278,0.677c-0.17-0.187-0.273-0.374-0.273-0.56
			c0-0.168,0.083-0.336,0.275-0.503C410.333,297.144,410.402,297.273,410.402,297.401z"/>
		<path fill="#FDFDFD" d="M384.912,300.015c-0.247,0-0.397-0.32-0.578-0.539c0.13-0.035,0.257-0.058,0.376-0.058
			c0.24,0,0.453,0.092,0.612,0.358C385.157,299.948,385.025,300.015,384.912,300.015z"/>
		<path fill="#FDFDFD" d="M312.002,129.141c-0.042,0-0.086-0.002-0.131-0.006c0.224-0.253,0.3-0.764,0.67-0.764
			c0.107,0,0.238,0.043,0.404,0.146C312.747,128.927,312.436,129.141,312.002,129.141z"/>
		<path fill="#FCF1DC" d="M405.289,306.519c-0.232,0-0.434-0.076-0.582-0.293c0.308-0.037,0.424-0.493,0.724-0.493
			c0.058,0,0.122,0.017,0.196,0.056c0.007,0.004,0.01,0.015,0.01,0.032c0,0.11-0.135,0.471-0.192,0.688
			C405.392,306.515,405.34,306.519,405.289,306.519z"/>
		<path fill="#FDFDFD" d="M342.505,278.837c0-0.257,0.042-0.519,0.042-0.775c0-0.044-0.001-0.088-0.004-0.132
			c0.256,0.241,0.325,0.507,0.325,0.783c0,0.312-0.088,0.637-0.089,0.949C342.557,279.405,342.505,279.124,342.505,278.837z"/>
		<path fill="#FDFDFD" d="M300.01,134.245c0.309-0.515,0.822-0.676,1.364-0.788C301.121,134.068,300.581,134.184,300.01,134.245z"/>
		<path fill="#FDFDFD" d="M347.712,287.51c-0.433,0-0.82-0.115-1.08-0.551c0.047-0.004,0.094-0.007,0.139-0.007
			c0.478,0,0.861,0.237,1.217,0.545C347.894,287.505,347.802,287.51,347.712,287.51z"/>
		<path fill="#87A8B9" d="M432.574,288.952c0.12,0,0.237,0.097,0.352,0.284c-0.112,0.204-0.234,0.422-0.474,0.422
			c-0.188,0-0.118-0.086-0.225-0.439C432.345,289.039,432.46,288.952,432.574,288.952z"/>
		<path fill="#FDFDFD" d="M277.726,140.739c0.103,0.255,0.147,0.434,0.147,0.556c0,0.177-0.091,0.236-0.228,0.236
			c-0.186,0-0.458-0.109-0.701-0.183C277.103,141.015,277.34,140.781,277.726,140.739z"/>
		<path fill="#FDFDFD" d="M462.506,292.238c-0.201,0-0.409,0.029-0.61,0.029c-0.3,0-0.584-0.065-0.803-0.392
			c0.127-0.044,0.247-0.063,0.363-0.063c0.4,0,0.745,0.227,1.096,0.426C462.536,292.238,462.521,292.238,462.506,292.238z"/>
		<path fill="#F5C05C" d="M400.533,143.463c-0.336,0-0.704-0.106-1.04-0.106c-0.386,0-0.73,0.14-0.933,0.739
			c-0.848,0.197-7.796,1.222-7.848,1.222c-0.696,0-1.303-0.562-1.303-1.569c0-0.221,0.065-0.937,0.065-2.455
			c0-3.042-0.27-6.082-0.27-9.112c0-1.34,0.042-1.533,0.042-2.402c0-0.915-0.046-1.831-0.046-2.746c0-0.933,0.043-1.032,0.043-1.938
			c0-1.631-0.327-6.543-0.327-8.434c0-0.917,0.041-1.053,0.041-1.943c0-1.711-0.175-3.426-0.175-5.136
			c0-2.668,0.448-3.636,0.448-3.954c0-0.288-0.198-0.45-0.473-0.577c-0.551-25.902-0.622-15.868-0.622-18.423
			c0-1.519,0.419-1.963,14.848-8.801c0.113-0.08,0.255-0.141,0.378-0.141c0.079,0,0.15,0.025,0.201,0.086
			c0.218,0.259,0.331,0.353,0.383,0.353c0.028,0,0.039-0.027,0.039-0.071c0-0.134-0.098-0.419-0.098-0.547
			c0-0.04,0.01-0.064,0.034-0.064c0.019,0,0.048,0.015,0.089,0.049c3.036-1.664,26.992-13.299,27.009-13.299
			c0.085,0,0.178,0.018,0.264,0.018c0.136,0,0.252-0.046,0.285-0.287c1.845-0.461,6.071-3.409,7.909-3.409
			c0.087,0,0.176,0.005,0.266,0.017c0.611-0.033,0.787-0.76,1.357-0.852c0.041,0.056,0.077,0.085,0.108,0.085
			c0.038,0,0.067-0.043,0.087-0.128c0.031-0.054,0.063-0.108,0.095-0.162l-0.004,0.008c0.444-0.242,1.065-0.158,1.336-0.722
			l0.008-0.005c0.042,0.004,0.083,0.005,0.123,0.005c0.891,0-2.55,0.632,23.698-11.798c0.379-0.028,0.759-0.055,1.042-0.361
			c2.478-1.129,5.22-3.094,8.257-3.094c1.306,0,2.546,0.368,3.731,1.173c1.813,1.231,1.54,2.998,1.54,8.675
			c0,5.597-0.016,11.195-0.016,16.792c0,16.326,0.14,17.742,0.14,23.206c0,3.476-0.047,6.952-0.047,10.426
			c0,7.562,0.189,6.125,0.189,14.954c0,1.034-0.002,2.068-0.002,3.102c0,4.701,0.054,6.107,0.054,6.375
			c0,2.509-3.334,5.789-5.972,6.006c-5.65,0.464-23.72,3.004-23.841,3.035c-0.157,0.013-28.32,3.648-28.477,3.648
			c-0.459,0-0.614-0.079-0.762-0.079c-0.362,0-0.844,0.318-1.126,0.762c-0.662,1.042-1.487,1.981-1.978,3.131
			c-0.258,0.365-1.163,0.115-1.163,0.726c0,0.106,0.027,0.237,0.089,0.402c-0.542,0.465-0.491,1.388-1.283,1.66
			c-0.718,1.204-1.817,2.119-2.525,3.33c-1.514,2.962-3.393,5.698-5.496,8.251c-1.303,1.581-3.096,5.337-3.991,5.337
			c-0.036,0-1.28-0.119-1.28-1.38c0-0.082,0.532-6.19,1.105-7.887c0.935-2.77,0.667-5.679,1.636-8.396
			c0.234-0.656,0.687-1.205,0.687-2.05c0-0.362-0.157-1.651-0.892-1.651c-0.399,0-1.458,0.482-3.781,0.482
			c-0.575,0-1.152-0.03-1.731-0.08C400.618,143.461,400.576,143.463,400.533,143.463z"/>
		<path fill="#89A9BA" d="M500.195,119.292c2.803,0.164,5.553,0.574,8.141,1.745c0.122,0.064,0.257,0.073,0.394,0.073
			c0.054,0,0.108-0.001,0.162-0.001c0.187,0,0.37,0.017,0.523,0.169c0.732,0.354,1.459,0.719,2.196,1.061
			c7.982,3.705,9.542,14.359,9.542,14.739c0,0.727-0.145,0.822-0.145,1.607c0,4.411,7.763,5.87,7.763,20.155
			c0,1.861-0.269,2.812-0.269,3.048c0,0.122,5.146,8.636,5.146,14.416c0,0.6-0.264,1.154-1.571,1.35
			c1.287,0.263,1.56,0.816,1.56,1.441c0,6.462-3.79,12.233-5.362,12.233c-0.469,0-1.112-0.443-1.112-1.001
			c0-1.686,4.372-2.369,4.372-13.788c0-4.157-2.658-9.39-3.438-10.321c-0.376-0.448-0.209-1.482-0.895-1.482
			c-2.238,0-1.892,4.125-7.001,4.125c-0.51,0-5.2-0.075-5.2-4.622c0-1.681,0.804-3.371,2.434-4.038
			c1.462-0.598,3.509-1.554,5.576-1.554c1.332,0,2.527,0.808,3.236,0.808c0.332,0,0.509-0.187,0.509-0.683
			c0-8.975-5.209-14.216-5.83-14.996c-0.005,0-0.011,0-0.016,0c-0.787,0-0.785,0.723-0.992,1.185
			c-0.216,0.482-0.463,0.688-0.747,0.688c-0.232,0-0.489-0.137-0.775-0.373c-0.199-0.225-0.273-0.443-0.273-0.657
			c0-0.603,0.573-1.131,0.573-1.712c0-1.103-2.32-1.185-3.368-1.704c-0.097-0.048-0.22-0.165-0.229-0.165c0,0,0,0,0,0
			c-0.579,1.648-2.632,1.566-2.632,4.236c0,0.702,0.217,1.392,0.792,1.986c0.259,0.126,1.595,0.535,1.595,1.127
			c0,0.159-0.112,0.318-0.384,0.477c-0.558,0.149-1.052,0.226-1.489,0.226c-0.129,0-2.97,0.258-2.97-4.678
			c0-3.139,2.902-5.973,5.867-5.973c1.373,0,2.178,0.815,2.954,0.815c0.509,0,0.84-0.351,1.099-1.075
			c0.101-0.281,0.203-0.476,0.203-0.582c0-0.062-0.035-0.094-0.128-0.094c-0.188,0-0.513,0.122-0.608,0.122
			c-0.143,0-0.178-0.118-0.178-0.257c0-0.188,0.035-0.196,0.035-0.548c0-2.305-1.568-4.019-2.294-6.045
			c-1.354-3.78-4.855-5.333-7.573-7.706c-0.152-0.133-0.305-0.172-0.458-0.172c-0.232,0-0.465,0.091-0.699,0.091
			c-1.559,0-5.583-1.677-8.603-1.677c-0.033,0-0.067,0-0.1,0c-0.11-0.108-0.162-0.217-0.162-0.328c0-0.108,0.049-0.217,0.143-0.328
			l-0.004,0.005C499.835,120.253,499.575,119.551,500.195,119.292z"/>
		<path fill="#8AAABA" d="M451.905,213.378c-0.49-0.139-0.976-0.192-1.459-0.192c-0.121,0-26.641,2.765-26.751,2.765
			c-0.33,0-0.615-0.327-0.931-0.327c-0.123,0-0.25,0.049-0.386,0.186c-0.096-0.045-0.186-0.063-0.273-0.063
			c-0.426,0-0.763,0.45-1.19,0.45c-0.076,0-0.154-0.014-0.237-0.048c-0.107-0.002-0.214-0.003-0.32-0.003
			c-2.991,0-11.974,1.196-12.118,1.196c-1.715,0-2.515-0.997-2.515-3.039c0-0.664,0.117-1.026,0.117-1.539
			c0-0.215-0.024-0.429-0.092-0.645c0.005-0.061,0.035-0.081,0.076-0.081c0.071,0,0.175,0.058,0.238,0.058
			c0.033,0,0.055-0.016,0.055-0.065c0-0.213-0.254-0.477-0.36-0.687c0.099-0.321,0.198-0.641,0.297-0.962
			c0.231-0.842,0.722-1.132,1.351-1.132c0.246,0,0.513,0.044,0.793,0.117c0.303,0.505,0.383,1.034,0.383,1.576
			c0,0.599-0.092,1.119-0.092,1.699c0,1.274,0.456,1.66,1.894,1.66c3.555,0,69.944-7.049,72.1-7.049c0.13,0,0.261,0.001,0.391,0.004
			c0.276,0.048,0.545,0.131,0.774,0.288c0.413,0.285,0.97,0.493,0.97,1.08c0,0.821-0.781,0.905-1.23,1.075
			c-0.502,0.189-1.114-0.052-1.528,0.418c-1.204,0.331-0.6,0.173-8.841,0.879c-0.085-0.043-0.169-0.058-0.252-0.058
			c-0.215,0-0.427,0.101-0.641,0.101c-0.045,0-0.09-0.004-0.135-0.015C449.984,213.344,452.694,212.978,451.905,213.378z"/>
		<path fill="#88A9BA" d="M430.202,224.798c0-0.048,0.003-0.097,0.01-0.149c2.125-2.51,23.353-2.059,24.817-3.361
			c0.531,0.053,1.061,0.076,1.589,0.076c2.152,0,9.967-0.991,14.392-0.991c1.01,0,1.385,0.039,1.743,0.039
			c1.809,0,3.594-0.703,5.435-0.877c0.123-0.012,20.665-1.611,20.962-1.611c0.335,0,0.695,0.212,1.042,0.314
			c0.02,0.083,0.029,0.155,0.029,0.219c0,0.593-0.781,0.453-1.012,0.829c0,0.009,0,0.018,0,0.028c0,1.171,1.49,1.112-20.793,2.868
			c-0.105,0.11-0.214,0.145-0.326,0.145c-0.184,0-0.373-0.093-0.557-0.093c-0.035,0-0.071,0.003-0.106,0.012
			c-3.505,0.536-20.82,1.949-25.481,2.4c-6.936,0.27-15.011,1.287-16.702,1.287c-0.922,0-1.151-0.087-1.572-0.087
			c-0.82,0-1.616,0.285-2.415,0.476C430.946,225.788,430.202,225.525,430.202,224.798z"/>
		<path fill="#8AAABA" d="M434.226,175.212c-0.216,0-0.43-0.04-0.631-0.157c-0.245-0.483-0.473-0.917-0.473-1.28
			c0-0.978,0.018-0.637,18.828-4.531c2.385-0.555,28.594-6.106,29.425-6.106c0.625,0,1.092,0.277,1.151,1.219
			c0.424,6.811,0.934,14.202,0.934,14.355c0,0.172-0.039,0.317-0.24,0.403c-0.234,0.068-0.437,0.098-0.617,0.098
			c-1.142,0-1.292-1.237-1.8-2.029c-0.347-0.729-0.424-1.488-0.424-2.252c0-0.611,0.049-1.226,0.049-1.832
			c0-1.547-0.318-4.113-0.383-6.023c-0.031-0.912-0.361-1.263-0.965-1.263c-0.2,0-0.43,0.038-0.689,0.108
			c-7.876,2.105-24.213,5.042-24.334,5.068c-2.134,0.475-5.96,1.616-6.56,1.616c-0.147,0-0.296-0.02-0.449-0.069
			c-0.192-0.275-0.323-0.376-0.418-0.376c-0.263,0-0.248,0.782-0.512,0.782c-0.03,0-0.064-0.01-0.103-0.033
			C440.989,174.312,434.39,175.212,434.226,175.212z"/>
		<path fill="#8AAABA" d="M480.712,178.232c0-0.43,0.099-0.857,0.508-1.162c0.47,0.873,0.66,2.019,1.998,2.044
			c0.554,1.988,1.501,22.834,1.501,27.649c0,0.189-0.059,0.381-0.059,0.567c0,0.131,0.061,0.462,0.061,0.948
			c0,1.391-0.582,1.861-2.217,1.861c-0.198,0-0.411-0.007-0.64-0.02c0.156-0.462,0.635-0.388,0.955-0.579
			c0.473-0.282,1.43-0.031,1.43-0.741c0-0.689-0.957-1.098-1.442-1.172c-0.753-0.974-0.782-2.107-0.782-3.221
			c0-0.096,0-0.192,0-0.288c0-1.841-0.731-7.359-0.731-14.114c0-0.265,0.001-0.53,0.004-0.796c0.155-0.191,0.213-0.373,0.213-0.549
			c0-0.364-0.246-0.703-0.38-1.055C481.12,187.485,480.712,178.254,480.712,178.232z"/>
		<path fill="#89A9BA" d="M515.112,149.07c-0.221,0-0.421-0.069-0.642-0.206c0.039-0.14,0.057-0.257,0.057-0.357
			c0-0.803-1.146-0.432-1.411-0.964c-0.032-0.056-0.046-0.119-0.046-0.179c0-0.115,0.052-0.214,0.131-0.214
			c0.032,0,0.272,0.053,0.63,0.053c2.37,0,3.404-2.244,4.234-2.244c0.133,0,0.275,0.044,0.43,0.154
			c0.231,0.119,0.429,0.204,0.598,0.204c0.755,0,0.42-1.686,1.342-1.686c0.137,0,0.299,0.043,0.491,0.146
			C518.837,148.333,515.323,149.07,515.112,149.07z"/>
		<path fill="#88A9BA" d="M500.613,220.012c-0.508,0-0.991-0.154-1.406-0.726c0.328-0.35,0.656-0.699,0.983-1.048
			c0.442-0.385,0.951-0.462,1.47-0.462c1.197,0,1.872,0.129,1.872,0.883c0,1.147-1.077,1.144-1.123,1.144
			C501.823,219.806,501.201,220.012,500.613,220.012z"/>
		<path fill="#E0F1F6" d="M452.101,154.35c0,0.877-0.093,1.797-0.169,2.679c-0.33-0.291-0.835-0.455-0.835-0.885
			c0-0.45,0.443-0.709,0.443-1.089c0-0.581-1.093-0.719-1.093-1.117c0-0.548,1.053-0.864,1.053-1.76
			c0-0.428-0.201-0.538-0.544-0.538c-0.086,0-0.17,0.006-0.244,0.006c-0.128,0-0.224-0.017-0.238-0.113
			c0.644-1.257,1.128-2.31,1.128-3.518c0-0.053-0.001-0.106-0.003-0.16c0.444,0.676,0.564,1.384,0.564,2.105
			c0,0.851-0.168,1.72-0.168,2.576C451.994,153.236,452.101,153.317,452.101,154.35z"/>
		<path fill="#ADC3CF" d="M357.983,108.827c-0.244,0-0.524-0.111-0.854-0.384c0.122-0.554,0.372-0.699,0.668-0.699
			c0.327,0,0.709,0.177,1.035,0.177c0.145,0,0.279-0.035,0.393-0.136C358.869,108.316,358.506,108.827,357.983,108.827z"/>
		<path fill="#F8D48F" d="M404.011,77.492c0.083,0.141,0.226,0.278,0.239,0.425c0.023,0.271,0.368,0.583,0.368,0.848
			c0,0.252-0.381,0.395-0.56,0.395c-0.386,0-0.505-0.502-0.539-0.871c-0.036-0.384-0.264-0.416-0.535-0.461
			C403.232,77.426,403.639,77.512,404.011,77.492z"/>
		<path fill="#89A9BA" d="M498.455,120.259c0.362,0,0.608,0.414,0.932,0.414c0.04,0,0.081-0.006,0.123-0.02
			c0.007,0.219,0.013,0.437,0.02,0.656c-0.218,0.1-0.397,0.145-0.547,0.145c-0.506,0-0.67-0.511-0.843-1.093
			C498.256,120.288,498.359,120.259,498.455,120.259z"/>
		<path fill="#F5C568" d="M441.39,59.474c0.019,0.141,0.038,0.282,0.057,0.422l0.016-0.017c-0.033-0.006-0.064-0.009-0.095-0.009
			c-0.51,0-0.717,0.801-1.227,0.801c-0.115,0-0.245-0.041-0.398-0.14C439.883,59.542,440.659,59.542,441.39,59.474z"/>
		<path fill="#E0F1F6" d="M451.994,146.332c0,0.507-0.175,1.013-0.4,1.519c-0.105-0.226-0.143-0.451-0.143-0.676
			c0-0.535,0.209-1.068,0.209-1.603c0-0.147-0.016-0.295-0.057-0.443C451.885,145.53,451.994,145.931,451.994,146.332z"/>
		<path fill="#FCF1DB" d="M431.517,63.923c0.017,0,0.035,0,0.052,0.001c0.033,0.29,0.361,0.634,0.361,0.894
			c0,0.247-0.331,0.319-0.402,0.319c-0.383,0-0.235-0.817-0.655-0.914C431.027,63.98,431.26,63.923,431.517,63.923z"/>
		<path fill="#F5C568" d="M444.129,58.124c-0.195,0.445-0.38,0.912-0.776,0.912c-0.165,0-0.367-0.081-0.622-0.279
			C443.12,58.375,443.573,58.135,444.129,58.124z"/>
		<path fill="#F5C568" d="M442.722,58.76c-0.016,0.635-0.322,0.734-0.681,0.734c-0.162,0-0.335-0.02-0.498-0.02
			c-0.054,0-0.107,0.002-0.158,0.008C441.728,59.049,442.218,58.892,442.722,58.76z"/>
		<path fill="#FAE7C2" d="M467.284,46.586c0.101,0,0.205,0.008,0.309,0.016c-0.084,0.439-0.235,0.684-0.471,0.684
			c-0.153,0-0.342-0.103-0.572-0.323C466.731,46.65,466.997,46.586,467.284,46.586z"/>
		<path fill="#88A9BA" d="M477.935,222.609c-0.162,0-0.332-0.126-0.51-0.363c0.114-0.221,0.237-0.293,0.364-0.293
			c0.203,0,0.418,0.182,0.625,0.229C478.264,222.472,478.104,222.609,477.935,222.609z"/>
		<path fill="#89A9BA" d="M499.541,120.397c0-0.16-0.024-0.332-0.024-0.492c0-0.318,0.097-0.588,0.678-0.614
			c-0.323,0.408-0.194,1.045-0.688,1.367C499.533,120.579,499.541,120.49,499.541,120.397z"/>
		<path fill="#89A9BA" d="M509.008,120.775c0.173,0,0.32,0.119,0.408,0.502c-0.15,0.02-0.3,0.043-0.445,0.043
			c-0.233,0-0.452-0.059-0.635-0.284C508.561,120.942,508.803,120.775,509.008,120.775z"/>
		<path fill="#8AAABA" d="M472.372,211.323c-0.123,0-0.248-0.075-0.376-0.296c0.167-0.207,0.337-0.305,0.51-0.305
			c0.171,0,0.344,0.096,0.519,0.277C472.806,211.08,472.592,211.323,472.372,211.323z"/>
		<path fill="#F1F0EB" d="M285.091,242.783c0-0.881,0.329-1.311,0.329-3.772c0-1.977-0.222-3.634-0.222-5.932
			c0-0.753,0.014-1.521,0.014-2.291c0-3.545-0.344-3.147-0.344-6.529c0-1.251,0.05-2.501,0.05-3.751
			c0-2.312-0.335-6.823-0.335-10.863c0-2.448,0.104-2.84,0.104-5.411c0-3.959-0.279-7.911-0.279-11.868
			c0-2.97,0.126-3.198,0.126-5.377c0-2.108-0.125-4.222-0.125-6.329c0-1.752,0.072-1.959,0.072-3.08
			c0-2.704-0.457-5.366-0.457-8.059c0-0.175,0.002-0.22,0.002-0.311c0-0.803-0.114-1.616-0.114-2.414c0-3.352,2.77-3.68,2.865-3.692
			c2.913-0.389,33.913-14.281,35.431-14.281c1.477,0,3.684,0.885,3.684,3.336c0,0.43-0.034,0.875-0.034,1.295
			c0,0.725,0.342,16.183,0.342,19.028c0,1.157-0.02,1.939-0.02,1.959c0,0.228,0.14,0.556,0.14,0.834
			c0,0.284-0.146,0.515-0.733,0.536c-0.13,0.005-0.181,0.106-0.181,0.205c0,0.395,1.121,0.499,1.121,2.161
			c0,0.776-0.245,1.597-0.245,2.36c0,0.634,0.262,1.393,0.262,4.192c0,2.347-0.183,3.843-0.183,7.779
			c0,6.66,0.484,7.309,0.484,12.959c0,3.094-0.139,6.183-0.139,9.265c0,1.438,1.041,27.04,1.041,27.571
			c0,1.938-0.136,3.89-0.201,5.827c-0.022,0.646-1.057,3.981-7.786,3.981c-3.096,0-6.13-0.713-9.198-1.114
			c-20.857-2.727-24.601-0.891-25.135-5.741C285.335,244.433,285.091,243.616,285.091,242.783z"/>
		<path fill="#F1F0EB" d="M480.875,176.179c0,0.289,0.229,0.594,0.345,0.892c0.089,3.623,0.178,7.247,0.267,10.87
			c-0.056,0.073-0.077,0.145-0.077,0.215c0,0.211,0.187,0.415,0.187,0.626c0,0.066-0.018,0.133-0.066,0.2
			c0.307,1.167,0.369,2.347,0.369,3.531c0,0.783-0.027,1.568-0.027,2.352c0,1.315-0.062-0.214,0.933,12.764
			c-38.178,3.816-35.347,3.786-37.23,3.786c-0.206,0-0.413-0.013-0.62-0.013c-1.316,0-1.283,0.708-1.687,0.708
			c-0.338,0-0.754-0.46-1.289-0.46c-0.123,0-27.089,3.139-30.618,3.139c-2.599,0-3.374-0.053-3.374-1.614
			c0-0.683,0.096-0.808,0.096-1.754c0-0.366-0.013-0.73-0.013-1.092c0-0.327,0.011-0.653,0.052-0.98
			c-0.409-0.566-0.529-1.18-0.529-1.822c0-1.825,0.343,2.015,0.944-26.371c0.022-1.055,0.706-1.61,1.718-1.797
			c6.209-1.148,20.436-4.283,21.46-4.283c0.275,0,0.546,0.066,0.807,0.271c0.127,0.006,0.255,0.018,0.38,0.018
			c0.259,0,0.504-0.051,0.692-0.31c4.179-0.82,8.359-1.641,12.538-2.462c0.206-0.134,0.409-0.278,0.667-0.278
			c0.015,0,0.031,0.001,0.047,0.002c2.189-0.874,4.646-0.577,6.839-1.774c0.757-0.413,2.271-0.17,3.394-0.386
			c2.67-0.516,19.938-4.169,21.79-4.805c0.298-0.102,0.556-0.158,0.774-0.158c0.579,0,0.878,0.395,0.89,1.373
			c0.032,2.634,0.4,5.257,0.4,7.896C480.933,175.513,480.875,176.091,480.875,176.179z"/>
		<path fill="#F1F0EB" d="M370.719,244.687c-3.097,0.926-6.033,0.944-7.124,0.944c-16.529,0-23.855-8.567-23.855-15.317
			c0-9.005,9.067-16.405,15.945-18.102c1.935-0.477,3.78-1.366,5.869-1.388c2.081-0.022,4.167-0.533,6.238-0.533
			c10.733,0,20.569,7.862,20.569,11.061c0,0.546-0.581,0.951-0.873,1.594c0.369-0.198,0.648-0.284,0.865-0.284
			c0.977,0,1.28,2.943,1.28,3.918c0,2.984-2.178,11.785-14.721,16.632c-0.594,0.23-1.184,0.942-1.878,0.942
			c-0.294,0-0.606-0.127-0.945-0.472C371.554,243.911,371.102,244.253,370.719,244.687z"/>
		<path fill="#88A8B9" d="M385.353,188.307c0.78,0.283,0.928,0.85,0.928,1.431c0,0.355-0.055,0.715-0.055,1.018
			c0,0.199,0.046,0.537,0.046,1.415c0,1.773-0.21,3.561-0.24,5.341c-0.019,1.076-0.745,0.909-1.379,0.993
			c-0.156-0.133-0.212-0.45-0.441-0.45c-0.062,0-0.138,0.023-0.231,0.08c-3.269,1.567-5.966,0.842-43.497,5.771
			c-0.435-0.183-0.86-0.273-1.277-0.273c-0.612,0-1.205,0.195-1.779,0.578c-0.145,0.006-0.283,0.008-0.414,0.008
			c-1.695,0-2.264-0.487-2.264-1.988c0-0.694,0.087-0.913,0.087-1.684c0-0.897-0.133-2.006-0.133-2.643
			c0-0.617,0.124-1.226,0.842-1.226c0.067,0,0.097,0.005,0.206,0.005c1.292,0,2.259-0.878,3.539-1.026
			c0.121-0.014,40.776-6.253,45.029-7.025C384.646,188.461,385.09,188.67,385.353,188.307z"/>
		<path fill="#88A8B9" d="M361.557,147.504c-2.17,0.678-4.34,1.355-6.511,2.033c-0.27,0.09-0.564,0.105-0.864,0.105
			c-0.152,0-0.304-0.004-0.456-0.004c-0.668,0-1.311,0.075-1.714,0.887c-5.467,1.656-1.979,0.518-12.889,4.137
			c-0.173-0.03-0.344-0.055-0.509-0.055c-0.314,0-0.604,0.09-0.837,0.403c-4.373,1.544-4.087,1.496-4.359,1.496
			c-0.292,0-0.439-0.182-0.439-0.587c0-0.241,0.065-0.534,0.065-1.304c0-2.215-0.528-3.508-0.528-4.385
			c0-1.394,0.987-1.996,2.194-2.337c0.414-0.117,26.584-10.78,33.627-13.326c0.01,0,0.021,0,0.031,0c0.742,0,1.335-0.464,2.014-0.66
			c0.004-0.101,0.014-0.202,0.03-0.303c0.139,0.148,0.277,0.201,0.413,0.201c0.333,0,0.659-0.313,0.992-0.313
			c0.09,0,0.179,0.023,0.27,0.08c0.388-0.368,0.775-0.737,1.267-1.204c0.274,0.64,0.345,1.281,0.345,1.912
			c0,0.689-0.085,1.367-0.085,2.019c0,1.842,0.148,6.425,0.148,6.579c0,0.425-0.078,0.828-0.609,1.007
			c-1.747,0.589-3.416,1.517-5.303,1.517c-0.049,0-0.069-0.001-0.085-0.001c-0.46,0-0.52,0.297-0.777,0.428
			c-1.722,0.873-3.65,1.07-5.45,1.686l-0.04-0.084L361.557,147.504z"/>
		<path fill="#88A8B9" d="M372.645,155.651c0,0.844-0.021,1.688-0.021,2.532c0,1.21,0.044,1.644,0.044,1.833
			c0,0.893-0.504,1.235-1.3,1.354c-6.244,0.931-36.013,9.507-37.287,9.507c-0.682,0-1.07-0.497-1.07-1.376
			c0-0.163,0.028-0.98,0.028-1.764c0-2.229-0.238-2.911-0.238-3.262c0-1.717,34.111-11.128,35.179-11.334
			c1.444-0.278,3.496-1.412,4.356-1.412c0.248,0,0.376,0.131,0.376,0.545c0,0.219-0.044,0.483-0.044,1.448
			c0,0.643,0.02,1.287,0.02,1.929C372.673,155.651,372.659,155.651,372.645,155.651z"/>
		<path fill="#88A8B9" d="M336.006,177.867c0.388,0,0.748-0.145,1.077-0.449c0.121-0.058,26.876-7.359,29.512-7.359
			c0.467,0,0.486,0.077,0.486,4.604c0,2.363,0.17,4.368-1.7,4.676c-7.891,1.297-27.58,5.86-29.569,5.86
			c-1.019,0-1.581-0.872-1.581-1.38c0-0.146,0.069-0.275,0.069-0.691c0-0.744-0.251-1.479-0.251-2.199
			c0-0.383,0.071-0.762,0.288-1.137c0.791-0.452,0.305-1.561,1.048-2.038l0,0C335.598,177.828,335.806,177.867,336.006,177.867z"/>
		<path fill="#89AABA" d="M431.127,173.595c0.894,0,1.385,0.453,1.396,1.752c-24.743,4.931-23.524,4.204-23.524,5.925
			c0,0.111,0.008,0.452,0.008,1.115c0,4.454-0.371,8.557-0.371,13.368c0,1.011,0.01,2.025,0.01,3.04
			c0,6.356-0.563,7.114-0.563,8.224c0,0.561,0.103,1.114,0.103,1.668c0,0.221-0.016,0.442-0.062,0.663
			c-0.656,0.409-1.555,0.336-2.065,1.036c-0.135-0.511-0.188-1.038-0.188-1.561c0-1.982,0.51-2.384,0.51-4.652
			c0-1.378-0.187-2.743-0.187-4.118c0-1.521,0.255-1.84,0.255-5.965c0-1.218-0.021-2.438-0.021-3.657
			c0-13.076,0.626-11.994,3.717-12.016c0.035,0.004,0.069,0.006,0.102,0.006c0.444,0,0.659-0.378,0.944-0.641
			C432.085,173.338,430.529,173.595,431.127,173.595z"/>
		<path fill="#EFC56E" d="M414.402,150.833c0.012-1.739,1.559-2.314,2.525-3.33C416.479,148.911,415.727,150.089,414.402,150.833z"
			/>
		<path fill="#92B2C2" d="M352.012,150.525c-0.001-0.023-0.002-0.045-0.002-0.068c0-0.762,0.674-1.342,1.421-1.342
			c0.665,0,0.826,0.412,1.614,0.422C354.107,150.088,353.038,150.24,352.012,150.525z"/>
		<path fill="#90B1C1" d="M337.428,204.211c0.108-0.225,0.456-0.316,0.456-0.606c0-0.24-0.284-0.553-0.284-0.85
			c0-0.349,0.467-0.389,0.517-0.389c0.384,0,0.249,0.544,0.383,0.804c0.158,0.308,0.355,0.4,0.565,0.4
			c0.39,0,0.46-0.204,1.232-0.204c0.196,0,0.315,0.021,0.315,0.161c0,0.081-0.04,0.201-0.128,0.38
			C339.466,204.008,338.447,204.11,337.428,204.211z"/>
		<path fill="#EEC672" d="M399.052,144.125c-0.161,0-0.326-0.011-0.492-0.029c-0.16-0.196-0.224-0.371-0.224-0.524
			c0-0.548,0.815-0.858,1.114-0.858c0.475,0,0.863,0.365,1.211,0.744C400.213,143.972,399.656,144.125,399.052,144.125z"/>
		<path fill="#F7FBFC" d="M444.097,275.103c-0.004,0.031-0.039,0.797-0.823,0.797c-0.033,0-0.784,0.022-0.784-0.796
			c0-0.485,0.293-0.795,0.78-0.795C443.427,274.309,444.003,274.315,444.097,275.103z"/>
		<path fill="#99B9C8" d="M334.21,178.855c0-0.568,0.238-1.014,1.173-1.101c-0.052,0.163-0.063,0.348-0.063,0.538
			c0,0.126,0.005,0.254,0.005,0.379c0,0.543-0.085,1.042-0.989,1.12C334.272,179.468,334.21,179.145,334.21,178.855z"/>
		<path fill="#B0CFDB" d="M421.454,216.505c-0.235,0-0.492-0.112-0.775-0.356c0.675-0.585,0.981-0.85,1.195-0.85
			c0.177,0,0.293,0.181,0.504,0.511C422.111,216.25,421.808,216.505,421.454,216.505z"/>
		<path fill="#97B8C7" d="M369.699,133.788c0.215,0,0.442,0.04,0.683,0.12c-0.445,0.314-0.762,1.025-1.308,1.025
			c-0.207,0-0.446-0.102-0.737-0.365C368.705,134.042,369.161,133.788,369.699,133.788z"/>
		<path fill="#D4DDCA" d="M418.211,145.843c-0.387-0.033-0.747-0.118-0.747-0.455c0-0.094,0.131-0.848,0.79-0.848
			c0.331,0,0.699,0.164,1.031,0.176C418.926,145.091,418.569,145.467,418.211,145.843z"/>
		<path fill="#ECF6F9" d="M314.913,262.005c-0.063,0.249-0.158,0.493-0.385,0.493c-0.026,0-0.783-0.147-0.783-0.796
			c0-0.422,0.285-0.572,0.464-0.572C314.738,261.13,314.83,261.745,314.913,262.005z"/>
		<path fill="#9BBBC9" d="M371.46,132.941c0.205,0,0.413,0.161,0.626,0.632c-0.348,0.142-0.692,0.431-1.042,0.431
			c-0.208,0-0.419-0.102-0.633-0.399C370.762,133.42,371.107,132.941,371.46,132.941z"/>
		<path fill="#DFF0F6" d="M365.311,117.265c0-0.273,0.067-0.503,0.409-0.542c0.216,0.069,0.526,0.244,0.526,0.696
			c0,0.188-0.082,0.453-0.453,0.453C365.363,117.872,365.311,117.48,365.311,117.265z"/>
		<path fill="#DBEBEE" d="M370.719,244.687c0.139-0.567,0.276-1.137,0.831-1.137c0.147,0,0.324,0.04,0.539,0.131
			C371.971,244.479,371.346,244.585,370.719,244.687z"/>
		<path fill="#98B9C7" d="M338.311,154.988c-0.07,0-0.14-0.002-0.21-0.002c-0.11,0-0.219,0.004-0.324,0.024
			c0.142-0.548,0.334-0.907,0.618-0.907c0.195,0,0.433,0.168,0.728,0.559C338.901,154.96,338.61,154.988,338.311,154.988z"/>
		<path fill="#A9C9D5" d="M411.045,177.772c0.046,0,0.094,0.003,0.144,0.008c-0.01,0.033-0.014,0.067-0.014,0.102
			c0,0.179,0.112,0.376,0.112,0.544c0,0.327-0.499,0.368-0.546,0.368c-0.226,0-0.443-0.119-0.598-0.379
			C410.324,178.003,410.614,177.772,411.045,177.772z"/>
		<path fill="#B7D7E2" d="M430.05,225.254c0-0.168,0.049-0.366,0.161-0.604c0.239,0.626,1.026,0.909,1.044,1.673
			C430.688,226.069,430.05,225.861,430.05,225.254z"/>
		<path fill="#99B9C8" d="M336.156,177.517c0.116,0,0.234,0.006,0.35,0.006c0.199,0,0.395-0.016,0.576-0.105
			c-0.278,0.436-0.576,0.775-0.94,0.775c-0.224,0-0.473-0.128-0.758-0.439C335.616,177.548,335.883,177.517,336.156,177.517z"/>
		<path fill="#B9D9E3" d="M405.76,211.346c0.532,0.378,1.032,0.778,1.081,1.697c-0.431-0.364-0.761-0.644-1.092-0.924
			C405.754,211.862,405.757,211.604,405.76,211.346z"/>
		<path fill="#DDF0F5" d="M298.137,148.068c0,0.002,0,0.003,0,0.005c-0.068,0.204-0.213,0.359-0.397,0.359
			c-0.181,0-0.543-0.222-0.543-0.413c0-0.264,0.198-0.423,0.451-0.423C297.736,147.596,298.137,147.628,298.137,148.068z"/>
		<path fill="#D8DDC8" d="M342.542,266.746c0.074,0.038,0.167,0.05,0.267,0.05c0.165,0,0.35-0.032,0.507-0.032
			c0.203,0,0.358,0.054,0.358,0.303c0,0.134-0.028,0.341-0.195,0.341c-0.206,0-0.536-0.276-0.81-0.276
			c-0.044,0-0.087,0.007-0.128,0.024C342.542,267.019,342.542,266.883,342.542,266.746z"/>
		<path fill="#E2F2F7" d="M277.434,162.47c0,0.092-0.159,0.206-0.264,0.334c-0.258-0.164-0.415-0.149-0.415-0.367
			c0-0.174,0.146-0.256,0.312-0.256C277.253,162.181,277.434,162.366,277.434,162.47z"/>
		<path fill="#A5C5D2" d="M384.26,198.717c-0.2,0-0.241-0.287-0.279-0.582c0.155-0.078,0.296-0.129,0.409-0.129
			c0.163,0,0.267,0.109,0.267,0.406c0,0.029-0.001,0.06-0.003,0.093C384.479,198.655,384.352,198.717,384.26,198.717z"/>
		<path fill="#A6C6D3" d="M384.998,188.286c0.116,0,0.236,0.012,0.356,0.022c-0.052,0.428-0.198,0.559-0.386,0.559
			c-0.191,0-0.424-0.135-0.645-0.232C384.493,188.347,384.736,188.286,384.998,188.286z"/>
		<path fill="#FBFCFC" d="M461.099,273.668c-0.022,0.27-0.04,0.504-0.29,0.504c-0.013,0-0.026-0.001-0.04-0.002
			c-0.091-0.008-0.253-0.207-0.253-0.281c0-0.093,0.292-0.409,0.35-0.482C460.954,273.506,461.042,273.605,461.099,273.668z"/>
		<path fill="#F0C46B" d="M400.287,276.834c-0.76,0-0.906-0.988-1.601-1.141c0.305-0.189,0.565-0.266,0.792-0.266
			c0.529,0,0.881,0.422,1.224,0.841c0.057,0.069,0.082,0.146,0.082,0.22C400.783,276.587,400.741,276.834,400.287,276.834z"/>
		<path fill="#EEC671" d="M395.309,273.711c0.384,0,0.684,0.447,1.01,0.765c-0.564,0.217-1.079,0.415-1.608,0.618
			c-0.1-0.186-0.143-0.365-0.143-0.527C394.568,274.065,394.982,273.711,395.309,273.711z"/>
		<path fill="#E0D2A1" d="M376.587,269.389c-0.632-0.209-1.343-0.103-2.337-0.859c1.118,0.205,1.772,0.325,2.426,0.444
			C376.646,269.112,376.617,269.251,376.587,269.389z"/>
		<path fill="#D3DDCB" d="M382.579,273.49c0,0.244-0.135,0.342-0.353,0.342c-0.02,0-0.041-0.001-0.062-0.002
			c-0.227-0.129-0.441-0.29-0.441-0.554c0-0.305,0.208-0.335,0.309-0.335C382.528,272.94,382.579,273.324,382.579,273.49z"/>
		<path fill="#ECC778" d="M347.063,254.982c0-0.092,0.105-0.226,0.188-0.413c0.15,0.195,0.302,0.308,0.302,0.43
			c0,0.103-0.118,0.22-0.18,0.33C347.284,255.243,347.063,255.105,347.063,254.982z"/>
		<path fill="#87A8B9" d="M268.828,237.221c0.285,0,0.511,0.1,0.561,0.424c-0.075,0.277-0.211,0.5-0.517,0.5
			c-0.457,0-0.573-0.512-0.573-0.661C268.299,237.197,268.625,237.221,268.828,237.221z"/>
		<path fill="#D7E2E7" d="M290.373,136.793c0,0.117-0.182,0.242-0.314,0.401c-0.21-0.194-0.362-0.215-0.362-0.43
			c0-0.185,0.132-0.32,0.32-0.32C290.227,136.444,290.373,136.709,290.373,136.793z"/>
		<path fill="#EDC775" d="M439.1,115.402c0,0.62-0.743,0.821-0.945,1.463c-0.218-0.261-0.297-0.328-0.297-0.356
			c0-0.022,0.65-1.581,0.7-1.702C438.892,115.028,439.1,114.968,439.1,115.402z"/>
		<path fill="#EFC570" d="M400.609,135.044c0,0.14-0.094,0.286-0.241,0.703c-0.152-0.342-0.275-0.634-0.275-0.853
			c0-0.358,0.366-0.388,0.376-0.388c0.125,0,0.15,0.125,0.15,0.264c0,0.087-0.01,0.18-0.01,0.251
			C400.609,135.033,400.609,135.036,400.609,135.044z"/>
		<path fill="#E0D2A0" d="M391.372,129.632c-0.041,0.212-0.125,0.306-0.229,0.306c-0.037,0-0.077-0.012-0.119-0.035
			c-0.278-0.155-0.471-0.257-0.471-0.479c0-0.141,0.101-0.197,0.219-0.197C391.063,129.226,391.227,129.496,391.372,129.632z"/>
		<path fill="#FEFEFE" d="M441.463,59.879l-0.016,0.018c0.349,0.009,0.606,0.119,0.606,0.468c0,0.041-0.003,0.084-0.011,0.132
			c-0.012,0.079-0.13,0.214-0.168,0.214c-0.001,0-0.003,0-0.004-0.001C441.458,60.576,441.486,60.213,441.463,59.879L441.463,59.879
			z"/>
		<path fill="#EACA80" d="M391.887,131.426c0.101,0,0.168,0.118,0.205,0.296c-0.044,0.084-0.114,0.215-0.183,0.346
			c-0.144-0.087-0.326-0.127-0.326-0.226C391.582,131.698,391.718,131.426,391.887,131.426z"/>
		<path fill="#FEFCF8" d="M461.549,135.417c0,0.135-0.16,0.19-0.457,0.208c-0.015-0.027-0.146-0.156-0.146-0.279
			c0-0.12,0.191-0.245,0.273-0.337C461.347,135.134,461.549,135.237,461.549,135.417z"/>
		<path fill="#E6CC8C" d="M441.624,83.482c0.001,0.015,0.001,0.03,0.001,0.044c0,0.181-0.071,0.288-0.187,0.288
			c-0.212,0-0.338-0.313-0.338-0.437c0-0.104,0.05-0.2,0.16-0.2C441.445,83.177,441.515,83.361,441.624,83.482z"/>
		<path fill="#FDFDFD" d="M522.475,161.187c0.161,0,0.326,0.013,0.493,0.042c0.107,0.063,0.211,0.085,0.313,0.085
			c0.232,0,0.454-0.114,0.677-0.114c0.853,0,1.483,0.509,1.483,1.188c0,0.275-0.105,0.572-0.336,0.861
			c-1.265,1.58-2.168,3.777-4.574,3.777c-3.792,0-3.386-2.333-3.386-2.473c0-1.614,0.73-2.209,2.505-2.647
			C520.602,161.672,521.489,161.187,522.475,161.187z"/>
		<path fill="#FDFDFE" d="M518.366,144.693c0,0.127,0.037,0.265,0.129,0.42c-0.005,0-0.01,0-0.015,0
			c-0.978,0-1.67,2.455-4.839,2.455c-0.172,0-0.347-0.008-0.525-0.025c-0.073,0.008-0.14,0.011-0.201,0.011
			c-0.509,0-0.606-0.253-0.606-0.56c0-0.19,0.038-0.402,0.038-0.586c0-0.34-0.305-0.79-0.305-1.686c0-1.047,0.508-1.927,1.697-2.551
			c0.227-0.119,1.104-1.48,1.299-1.48c0.005,0,0.01,0.001,0.015,0.003c1.5,0.765,4.191,0.739,4.191,1.842
			c0,0.295-0.14,0.633-0.234,0.941C518.878,143.908,518.366,144.223,518.366,144.693z"/>
		<path fill="#89A9BA" d="M518.572,140.723c0-0.136,0.044-0.301,0.084-0.611c0.225,0.357,0.485,0.616,0.485,0.834
			c0,0.201-0.259,0.337-0.346,0.337c-0.174,0-0.194-0.302-0.219-0.488C518.574,140.771,518.572,140.747,518.572,140.723z"/>
		<path fill="#AAC8D4" d="M446.658,171.875c0.176,0,0.145,0.284,0.189,0.442c-0.134,0.209-0.316,0.295-0.531,0.295
			c-0.059,0-0.12-0.006-0.183-0.018C446.285,172.314,446.359,171.875,446.658,171.875z"/>
		<path fill="#C7D4D9" d="M481.977,188.563c0,0.133-0.116,0.272-0.445,0.419c-0.069-0.224-0.282-0.442-0.282-0.668
			c0-0.121,0.061-0.245,0.238-0.374C481.678,188.147,481.977,188.349,481.977,188.563z"/>
		<path fill="#C9E7F0" d="M290.812,204.642c0,0.065,0.002,0.133,0.005,0.203c-0.235-0.654-0.298-1.288-0.298-1.928
			c0-0.489,0.037-0.981,0.061-1.488c0.518,0.199,1.986,0.548,1.986,1.286C292.567,203.518,290.812,202.737,290.812,204.642z"/>
		<path fill="#CEE8F0" d="M288.634,205.059c0,0.467-0.239,0.964-0.748,1.527c-0.678-1.095-0.327-2.125-0.54-3.403
			C288.178,203.821,288.634,204.412,288.634,205.059z"/>
		<path fill="#D8EAEE" d="M307.341,207.208c0-0.422,0.192-0.847,0.578-1.534c0.363,0.547,0.562,1.071,0.562,1.59
			c0,0.488-0.176,0.971-0.559,1.464C307.535,208.052,307.341,207.632,307.341,207.208z"/>
		<path fill="#DDECED" d="M324.117,197.103c0,0.387-0.156,0.781-0.552,1.225c0-0.95,0-1.706,0-2.705
			C323.88,196.159,324.117,196.626,324.117,197.103z"/>
		<path fill="#D9EBEE" d="M309.983,158.439c0.121,0,0.271,0.091,0.81,0.275c-0.71,0.344-0.865,0.442-0.986,0.442
			c-0.008,0-0.202,0.014-0.202-0.28C309.605,158.861,309.597,158.439,309.983,158.439z"/>
		<path fill="#D1E9EF" d="M300.068,165.637c0.115,0,0.186,0.126,0.215,0.307c-0.087,0.115-0.178,0.354-0.374,0.354
			c-0.109,0-0.158-0.113-0.158-0.222C299.752,165.907,299.885,165.637,300.068,165.637z"/>
		<path fill="#C5E4EE" d="M361.538,147.516L361.538,147.516l0.018-0.012c-0.228-0.115-0.331-0.267-0.331-0.444
			c0-0.111,0.04-0.231,0.115-0.357c0.023-0.039,0.125-0.068,0.2-0.068c0.031,0,0.057,0.005,0.07,0.017
			c0.116,0.101,0.158,0.197,0.158,0.29C361.768,147.137,361.588,147.323,361.538,147.516L361.538,147.516z"/>
		<path fill="#AAC9D6" d="M334.742,168.647c0.102-0.013,0.2-0.02,0.292-0.02c0.497,0,0.849,0.209,1.043,0.92
			C335.478,169.143,335.11,168.895,334.742,168.647z"/>
	</g>
	<g id="object_2_">
		<path fill="#87A8B9" d="M195.536,168.055c0.276,0,0.556,0.05,0.832,0.05c0.251,0,0.497-0.041,0.731-0.199
			c4.067-0.482,8.16-0.211,12.236-0.427c0.212-0.036,0.427-0.042,0.643-0.042c0.098,0,0.197,0.001,0.295,0.001
			c0.387,0,0.771-0.018,1.137-0.197c2.128-0.117,4.256-0.233,6.385-0.35c0.393,0.096,0.785,0.186,1.178,0.186
			c0.297,0,0.595-0.052,0.892-0.192c0.279,0.061,0.558,0.084,0.838,0.084c0.883,0,1.769-0.231,2.652-0.231
			c0.417,0,0.834,0.051,1.249,0.203c0.598,0.268,0.87,0.594,0.87,0.967c0,0.307-0.185,0.646-0.524,1.013
			c-0.597,0.583-1.276,0.702-1.976,0.702c-0.476,0-0.961-0.055-1.437-0.055c-0.364,0-0.723,0.032-1.068,0.145
			c-0.264-0.039-0.526-0.056-0.787-0.056c-0.643,0-1.278,0.107-1.908,0.268c-0.533-0.065-1.064-0.091-1.594-0.091
			c-2.127,0-4.235,0.423-6.364,0.46c-14.347,0.254-12.959,1.009-14.065,1.009c-0.328,0-0.659-0.099-0.997-0.382
			c-0.201-0.102-0.39-0.149-0.568-0.149c-0.346,0-0.649,0.181-0.921,0.496c-0.443-0.017-0.886-0.025-1.328-0.025
			c-2.996,0-6.715,0.395-7.708,0.395c-0.875,0-1.662-0.222-1.662-1.385c0-0.936,0.5-1.952,5.742-1.952
			c0.462,0,0.925,0.005,1.387,0.005c0.763,0,1.526-0.014,2.286-0.087c0.252-0.126,0.51-0.163,0.77-0.163
			c0.291,0,0.584,0.046,0.876,0.065c0.487-0.002,0.974-0.003,1.461-0.005C195.235,168.071,195.385,168.055,195.536,168.055z"/>
		<path fill="#87A8B9" d="M135.658,209.861c-0.156,0-0.313-0.011-0.468-0.011c-0.243,0-0.484,0.026-0.709,0.159
			c-0.027,0.001-0.053,0.001-0.08,0.001c-0.437,0-0.839-0.123-1.211-0.357c-0.132-0.078-0.266-0.129-0.401-0.129
			c-0.105,0-0.212,0.031-0.319,0.103c-8.968,0.474-6.822,0.371-8.429,0.394c-0.328-0.122-0.657-0.17-0.986-0.17
			c-0.384,0-0.768,0.065-1.152,0.154c-0.646-0.091-1.14-0.789-1.845-0.789c-0.595,0-0.737,0.38-1.088,0.38
			c-0.544,0-1.642-0.52-1.642-1.463c0-0.579,0.279-1.126,1.725-1.126c0.164,0,1.249,0.014,3.641,0.014c1.938,0,4.36-0.01,5.414-0.01
			c0.146,0,0.292,0,0.439,0c1.318,0,2.635-0.015,3.932-0.315c0.447,0.116,0.921,0.059,1.363,0.208
			c2.395,0.01,4.79,0.021,7.185,0.031c0.191,0.056,0.385,0.07,0.58,0.07c0.2,0,0.402-0.015,0.602-0.015
			c0.178,0,0.355,0.012,0.53,0.056c0.784-0.036,1.568-0.072,2.353-0.108c0.548,0.066,1.096,0.171,1.644,0.171
			c0.351,0,0.702-0.043,1.053-0.168c0.523,0.288,1.048,0.382,1.574,0.382c0.927,0,1.858-0.292,2.785-0.326
			c0.215,0.139,0.429,0.193,0.643,0.193c0.276,0,0.551-0.09,0.826-0.205c0.682,0.472,1.404,0.611,2.151,0.611
			c0.827,0,1.394-0.146,1.929-0.146c0.731,0,1.211,0.24,1.211,0.854c0,0.268-0.091,0.607-0.293,1.028
			c-0.107-0.031-0.198-0.045-0.274-0.045c-0.582,0-0.345,0.808-0.701,1.031c-0.653,0.009-1.306,0.018-1.96,0.026
			c-0.36-0.121-0.72-0.179-1.081-0.179c-0.366,0-0.732,0.06-1.098,0.174c-1.081,0-2.162-0.001-3.243-0.001
			c-0.285-0.128-0.58-0.158-0.878-0.158c-0.261,0-0.524,0.023-0.785,0.023c-0.261,0-0.519-0.023-0.771-0.114
			c-1.442-0.136-2.886-0.18-4.329-0.18c-1.598,0-3.197,0.053-4.795,0.091c-0.217-0.128-0.449-0.152-0.685-0.152
			c-0.149,0-0.3,0.01-0.45,0.01c-0.213,0-0.423-0.02-0.622-0.118c-0.243,0.011-0.487,0.022-0.73,0.032
			C136.033,209.846,135.846,209.861,135.658,209.861z"/>
		<path fill="#87A8B9" d="M130.439,315.119c-0.34,0-0.682,0.14-1.024,0.235c-0.477-0.034-0.978,0.044-1.391-0.294
			c-0.004,0-0.008,0-0.011,0c-0.45,0-0.767,0.524-1.217,0.524c-0.113,0-0.235-0.033-0.369-0.116
			c-0.69-0.079-1.379-0.108-2.068-0.108c-1.806,0-3.609,0.197-5.414,0.197c-5.879,0-6.621-0.372-6.621-1.356
			c0-0.876,1.458-1.558,2.834-1.558c0.851,0,1.707,0.175,2.547,0.175c1.094,0,2.497-0.121,3.739-0.121
			c1.258,0,7.624,0.203,9.378,0.253c0.266-0.099,0.534-0.136,0.803-0.136c0.282,0,0.564,0.041,0.847,0.094
			c0.115,0.003,0.229,0.004,0.344,0.004c1.334,0,2.687-0.172,3.998-0.172c1.532,0,1.676,0.244,6.375,0.244
			c0.864,0,1.727-0.007,2.59-0.007c2.565,0,2.302,0.058,4.9,0.058c0.867,0,1.735-0.007,2.603-0.007c0.482,0,0.657,0.002,0.777,0.002
			c0.05,0,0.1,0,0.151,0c1.479,0,1.633,0.48,1.633,1.011c0,1.09-1.181,0.907-2.277,1.016c-0.328,0.114-0.657,0.163-0.987,0.163
			c-0.341,0-0.683-0.052-1.025-0.139c-0.448-0.186-0.894-0.249-1.34-0.249c-0.969,0-1.934,0.3-2.903,0.3
			c-0.077,0-0.154-0.002-0.231-0.006c-0.199,0.062-0.404,0.078-0.61,0.078c-0.215,0-0.433-0.017-0.648-0.017
			c-0.277,0-0.55,0.029-0.813,0.16c-1.327-0.073-2.655-0.098-3.982-0.098c-3.018,0-6.035,0.131-9.053,0.131
			c-0.279,0-0.559-0.001-0.838-0.004C130.906,315.185,130.673,315.119,130.439,315.119z"/>
		<path fill="#87A8B9" d="M152.851,287.343c-0.269,0-0.54-0.025-0.808-0.025c-0.306,0-0.61,0.032-0.903,0.169
			c-1.911,0.13-3.821,0.261-5.732,0.391c-0.199,0.117-0.413,0.142-0.631,0.142c-0.155,0-0.313-0.012-0.468-0.012
			c-0.227,0-0.449,0.026-0.655,0.156c-0.267-0.208-0.534-0.28-0.801-0.28c-0.585,0-1.169,0.343-1.754,0.343
			c-0.129,0-0.258-0.017-0.387-0.058c-0.522-0.306-1.26-0.464-1.26-1.126c0-0.15,0.038-0.327,0.126-0.537
			c0.746-1.349,2.15-1.108,3.337-1.348c0.172-0.035,0.348-0.046,0.525-0.046c0.343,0,0.692,0.043,1.036,0.043
			c0.413,0,0.818-0.062,1.198-0.333c0.365,0.12,0.731,0.164,1.098,0.164c0.464,0,0.929-0.07,1.394-0.142
			c0.229,0.003,0.458,0.005,0.686,0.005c5,0,8.929-0.756,10.353-0.756c1.067,0,1.282,0.158,2.391,0.158
			c1.791,0,3.557-0.457,5.344-0.457c0.307,0,0.614,0.013,0.922,0.045c0.376,0.114,0.757,0.15,1.14,0.15
			c0.388,0,0.675-0.035,0.792-0.035c0.673,0,0.831,0.559,0.831,0.896c0,0.424-0.321,0.44-0.635,0.44c-0.025,0-0.049,0-0.073,0
			c-0.76,0-1.351,0.283-2.057,0.455c-13.989,1.661-12.048,1.027-14.321,1.512C153.311,287.325,153.082,287.343,152.851,287.343z"/>
		<path fill="#87A8B9" d="M243.09,291.077c-0.302,0-0.574-0.134-0.817-0.407c-2.376,0.07-4.751,0.14-7.127,0.21
			c-0.022-0.002-0.045-0.003-0.067-0.003c-0.238,0-0.469,0.108-0.707,0.108c-0.082,0-0.164-0.013-0.247-0.047
			c-0.561-0.148-1.128-0.192-1.698-0.192c-0.879,0-1.765,0.107-2.647,0.107c-0.808,0-3.304-0.233-3.304-1.258
			c0-1.22,1.667-1.009,2.597-1.009c1.089,0,2.179,0.003,3.269,0.003c7.487,0,6.431-0.174,13.811-0.174
			c8.148,0,8.982,0.058,10.363,0.459c0.282,0.259,0.39,0.48,0.39,0.678c0,0.39-0.42,0.688-0.757,1.004
			c-0.749,0.477-1.569,0.6-2.387,0.6c-1.026,0-2.159-0.213-4.661-0.213c-0.588,0-1.175,0.013-1.765,0.04
			c-0.15,0.064-0.306,0.083-0.464,0.083c-0.217,0-0.439-0.035-0.656-0.035c-0.221,0-0.438,0.036-0.64,0.182
			c-0.473-0.151-0.942-0.328-1.435-0.328c-0.173,0-0.348,0.022-0.528,0.074C243.429,291.037,243.256,291.077,243.09,291.077z"/>
		<path fill="#87A8B9" d="M167.857,285.746c0.467-0.456,1.031-0.627,1.676-0.627c0.128,0,0.248,0.021,0.377,0.021
			c0.201,0,0.378-0.055,0.378-0.34c0-0.244-0.118-0.646-0.603-0.646c-0.236,0-0.342,0.094-0.696,0.094
			c-0.407,0-0.78-0.152-1.13-0.408c3.205-0.074,3.011-0.07,3.044-0.07c0.585,0,1.104,0.327,1.104,0.886
			C172.009,285.486,171.026,285.419,167.857,285.746z"/>
		<path fill="#87A8B9" d="M225.722,168.007c0,0.431-0.109,0.847-0.771,0.915c0.144-0.301,0.225-0.59,0.225-0.866
			c0-0.405-0.173-0.779-0.571-1.114c0.131-0.03,0.259-0.047,0.379-0.047C225.664,166.895,225.722,167.366,225.722,168.007z"/>
		<path fill="#87A8B9" d="M141.874,206.596c0.298,0,0.586,0.141,0.863,0.452c-0.346,0.101-0.7,0.329-1.039,0.329
			c-0.234,0-0.461-0.108-0.673-0.44C141.315,206.718,141.599,206.596,141.874,206.596z"/>
		<path fill="#87A8B9" d="M145.928,206.746c0.569,0,1.138,0.204,1.707,0.204c0.051,0,0.101-0.002,0.152-0.005
			c-0.483,0.218-0.967,0.363-1.45,0.363c-0.416,0-0.832-0.107-1.247-0.366C145.37,206.795,145.649,206.746,145.928,206.746z"/>
		<path fill="#87A8B9" d="M139.271,287.405c0-0.22,0.109-0.509,0.304-0.898c-0.006,0.049-0.009,0.097-0.009,0.142
			c0,0.767,0.812,0.98,1.143,1.521C139.694,288.01,139.271,287.839,139.271,287.405z"/>
		<path fill="#87A8B9" d="M219.308,169.961c-0.397,0-0.798-0.051-1.195-0.051c-0.113,0-0.227,0.004-0.339,0.015
			c0.595-0.17,1.17-0.583,1.778-0.583c0.296,0,0.6,0.098,0.918,0.371C220.091,169.911,219.701,169.961,219.308,169.961z"/>
		<path fill="#87A8B9" d="M158.618,209.458c0,0.568-0.27,0.869-0.845,0.869c-0.043,0-0.087-0.002-0.133-0.005
			c-0.001-0.091-0.003-0.183-0.003-0.274c0-0.433,0.047-0.82,0.486-0.82c0.128,0,0.289,0.033,0.491,0.107
			C158.616,209.378,158.618,209.418,158.618,209.458z"/>
		<path fill="#87A8B9" d="M129.415,315.354c0.631-0.343,1.032-0.516,1.289-0.516c0.262,0,0.376,0.179,0.433,0.538
			C130.563,315.368,129.989,315.361,129.415,315.354z"/>
		<path fill="#87A8B9" d="M127.047,315.727c-0.185,0-0.388-0.075-0.62-0.259c0.404-0.099,0.81-0.017,1.041-0.615
			c0.075-0.193,0.145-0.265,0.211-0.265c0.137,0,0.253,0.307,0.345,0.471C127.73,315.404,127.43,315.727,127.047,315.727z"/>
		<path fill="#87A8B9" d="M257.237,289.711c0,0.36-0.514,0.609-1.09,0.843c0.073-0.431,0.526-0.779,0.526-1.227
			c0-0.14-0.044-0.29-0.159-0.455C257.034,289.213,257.237,289.484,257.237,289.711z"/>
		<path fill="#87A8B9" d="M148.164,284.844c-0.429,0.191-0.858,0.303-1.286,0.303c-0.403,0-0.804-0.099-1.205-0.326
			C146.503,284.83,147.334,284.837,148.164,284.844z"/>
		<path fill="#87A8B9" d="M219.865,166.886c-0.344,0.217-0.688,0.323-1.032,0.323c-0.346,0-0.691-0.107-1.038-0.317
			C218.485,166.89,219.175,166.888,219.865,166.886z"/>
		<path fill="#87A8B9" d="M193.559,171.294c-0.096,0-0.194-0.008-0.294-0.026c0.203-0.477,0.449-0.772,0.763-0.772
			c0.209,0,0.448,0.13,0.726,0.425C194.375,171.13,193.986,171.294,193.559,171.294z"/>
		<path fill="#87A8B9" d="M122.666,210.144c-0.255,0-0.509-0.034-0.763-0.137c0.351-0.222,0.702-0.331,1.051-0.331
			c0.363,0,0.725,0.117,1.086,0.346C123.582,210.034,123.124,210.144,122.666,210.144z"/>
		<path fill="#87A8B9" d="M196,167.879c0.286,0,0.575,0.039,0.861,0.039c0.08,0,0.159-0.003,0.238-0.011
			c-0.239,0.269-0.498,0.347-0.765,0.347c-0.363,0-0.742-0.144-1.105-0.144c-0.047,0-0.095,0.002-0.142,0.008
			C195.38,167.925,195.688,167.879,196,167.879z"/>
		<path fill="#87A8B9" d="M152.481,287.534c-0.363,0-0.732-0.056-1.095-0.056c-0.083,0-0.165,0.003-0.248,0.01
			c0.31-0.256,0.638-0.327,0.973-0.327c0.408,0,0.826,0.105,1.234,0.105c0.064,0,0.128-0.003,0.191-0.009
			C153.197,287.478,152.842,287.534,152.481,287.534z"/>
		<path fill="#87A8B9" d="M210.28,167.197c0.314,0,0.635,0.052,0.949,0.052c0.061,0,0.121-0.002,0.182-0.007
			c-0.365,0.302-0.751,0.425-1.151,0.425c-0.301,0-0.61-0.07-0.924-0.187C209.635,167.252,209.954,167.197,210.28,167.197z"/>
		<path fill="#87A8B9" d="M150.038,210.335c-0.378,0-0.762,0.065-1.14,0.065c-0.369,0-0.731-0.062-1.074-0.306
			c0.042,0.002,0.084,0.002,0.126,0.002c0.391,0,0.789-0.064,1.18-0.064c0.387,0,0.767,0.063,1.128,0.311
			C150.184,210.337,150.111,210.335,150.038,210.335z"/>
		<path fill="#87A8B9" d="M146.143,315.393c-0.319,0-0.643-0.052-0.961-0.052c-0.058,0-0.115,0.002-0.172,0.006
			c0.27-0.231,0.558-0.293,0.853-0.293c0.339,0,0.687,0.082,1.026,0.082c0.065,0,0.129-0.003,0.193-0.01
			C146.782,315.34,146.465,315.393,146.143,315.393z"/>
		<path fill="#87A8B9" d="M152.563,315.423c-0.335,0-0.671-0.118-1.009-0.342c0.671-0.008,1.341-0.016,2.012-0.024
			C153.233,315.305,152.898,315.423,152.563,315.423z"/>
		<path fill="#87A8B9" d="M153.501,210.344c0.343-0.253,0.685-0.362,1.027-0.362c0.384,0,0.768,0.138,1.151,0.367
			C154.953,210.347,154.227,210.346,153.501,210.344z"/>
		<path fill="#87A8B9" d="M246.506,291.261c-0.28,0-0.566-0.052-0.846-0.052c-0.028,0-0.057,0.001-0.085,0.002
			c0.189-0.317,0.407-0.411,0.637-0.411c0.328,0,0.68,0.189,1.008,0.189c0.039,0,0.078-0.003,0.116-0.009
			C247.076,291.206,246.794,291.261,246.506,291.261z"/>
		<path fill="#87A8B9" d="M192.803,167.866c0.27,0,0.546,0.097,0.825,0.256c-0.549,0.033-1.097,0.065-1.646,0.098
			C192.248,167.971,192.522,167.866,192.803,167.866z"/>
		<path fill="#87A8B9" d="M242.885,291.276c-0.247,0-0.459-0.166-0.612-0.606c0.446,0.096,0.893,0.192,1.339,0.288
			C243.352,291.145,243.104,291.276,242.885,291.276z"/>
		<path fill="#87A8B9" d="M131.647,312.622c0.272,0,0.547,0.1,0.825,0.286c-0.55,0.014-1.1,0.029-1.65,0.043
			C131.094,312.727,131.37,312.622,131.647,312.622z"/>
		<path fill="#87A8B9" d="M144.565,288.203c-0.255,0-0.517-0.044-0.771-0.044c-0.047,0-0.094,0.001-0.14,0.005
			c0.305-0.243,0.644-0.282,0.99-0.282c0.161,0,0.323,0.008,0.483,0.008c0.095,0,0.189-0.003,0.282-0.012
			C145.152,288.142,144.863,288.203,144.565,288.203z"/>
		<path fill="#87A8B9" d="M138.576,210.002c-0.262,0-0.532,0.046-0.794,0.046c-0.295,0-0.581-0.058-0.839-0.303
			c0.047,0.003,0.094,0.004,0.141,0.004c0.232,0,0.468-0.026,0.701-0.026c0.319,0,0.63,0.049,0.914,0.283
			C138.657,210.003,138.617,210.002,138.576,210.002z"/>
		<path fill="#87A8B9" d="M135.387,210.047c-0.257,0-0.519-0.041-0.776-0.041c-0.044,0-0.087,0.001-0.131,0.004
			c0.3-0.235,0.624-0.3,0.956-0.3c0.256,0,0.517,0.038,0.776,0.067C135.954,209.995,135.674,210.047,135.387,210.047z"/>
		<path fill="#87A8B9" d="M132.935,209.849c-0.158,0-0.309-0.182-0.466-0.221c0.061-0.212,0.104-0.482,0.342-0.482
			c0.262,0,0.235,0.223,0.378,0.508C133.102,209.799,133.017,209.849,132.935,209.849z"/>
		<path fill="#87A8B9" d="M153.615,206.989c-0.322,0.038-0.642,0.419-0.964,0.419c-0.167,0-0.335-0.102-0.504-0.407
			C152.636,206.997,153.125,206.993,153.615,206.989z"/>
		<path fill="#87A8B9" d="M234.629,291.233c-0.162,0-0.33-0.098-0.504-0.296c0.221-0.07,0.431-0.324,0.656-0.324
			c0.117,0,0.237,0.068,0.365,0.266C234.98,291.115,234.808,291.233,234.629,291.233z"/>
		<path fill="#87A8B9" d="M132.968,206.507c0.311,0,0.589,0.218,0.873,0.398c-0.223,0.001-0.453,0.043-0.676,0.043
			c-0.242,0-0.476-0.049-0.687-0.251C132.652,206.56,132.814,206.507,132.968,206.507z"/>
	</g>
	<g id="grass_3_">
		<path fill="#F5A55C" d="M113.546,352.923c-0.167,0-0.327-0.05-0.485-0.111c-0.939-1.557-2.674-2.202-4.045-3.145
			c-9.078-6.243-12.037-6.506-20.547-7.763c-0.192,0.232-0.362,0.327-0.517,0.327c-0.666,0-1.046-1.748-1.712-1.748
			c-0.248,0-0.536,0.243-0.894,0.912c-8.697-0.664-11.457-0.594-15.029-3.934c0-0.68,0-1.359,0-2.039
			c2.715-0.306,3.968-0.657,6.902-0.657c14.564,0,29.057,7.442,36.942,15.938c0.05,0.082,0.07,0.156,0.07,0.226
			c0,0.242-0.239,0.426-0.278,0.659c-0.022,0.092-0.03,0.184-0.03,0.276c0,0.209,0.04,0.418,0.04,0.628
			c0,0.03-0.001,0.059-0.003,0.089c-0.039,0.147-0.126,0.253-0.257,0.327C113.651,352.918,113.598,352.923,113.546,352.923z"/>
		<path fill="#F5A55C" d="M77.794,333.854c-0.591,0-1.183,0.061-1.774,0.182c-0.229-0.023-0.456-0.033-0.683-0.033
			c-1.178,0-2.333,0.268-3.502,0.368c-0.244,0.021-0.507,0.294-0.744,0.294c-0.247,0-0.386-0.323-0.386-0.539
			c0-0.66,2.251-3.874,5.077-4.553c0.158-0.08,0.327-0.099,0.498-0.099c0.17,0,0.344,0.02,0.514,0.02
			c0.226,0,0.445-0.034,0.645-0.194c2.153-0.684,4.366-0.944,6.614-0.944c0.062,0,0.125,0,0.187,0.001
			c0.14,0.125,0.298,0.155,0.463,0.155c0.152,0,0.31-0.026,0.462-0.026c0.157,0,0.309,0.028,0.445,0.14
			c3.376,0.257,16.312,0.526,27.87,18.34c0.106,0.196,0.156,0.379,0.156,0.549c0,0.326-0.185,0.606-0.508,0.851
			c-15.93-13.941-32.849-14.333-33.208-14.333c-0.118,0-0.236,0.002-0.354,0.005C78.976,333.915,78.385,333.854,77.794,333.854z"/>
		<path fill="#F5A55C" d="M123.698,352.409c-0.008,0-0.017,0-0.026,0.001c-1.563-0.864-2.248-2.534-3.434-3.744
			c-0.201-0.52-0.617-0.872-0.985-1.261c-11.062-11.549-9.763-10.412-10.467-10.846c-0.259-0.16-0.353-0.335-0.353-0.522
			c0-0.283,0.216-0.593,0.402-0.914c0.21-0.361,0.392-0.491,0.593-0.491c1.627,0,13.015,8.722,16.301,18.1
			c-0.016,0.451-0.158,0.581-0.346,0.581c-0.205,0-0.463-0.154-0.667-0.212C124.316,352.988,124.195,352.409,123.698,352.409z"/>
		<path fill="#F5A55C" d="M126.543,351.405c0,0.12-0.047,0.239-0.157,0.356c-1.832-3.092-6.782-12.915-17.069-18.136
			c0.878-0.724,1.997-1.093,3.166-1.093c1.85,0,9.823,2.673,13.929,18.496C126.494,351.155,126.543,351.281,126.543,351.405z"/>
		<path fill="#F5A55C" d="M113.129,348.365c0.117-0.467,0.234-0.933,0.351-1.4c0.88,0.568,0.861,1.786,1.715,2.373
			c0.098,0.197,0.164,0.394,0.164,0.59c0,0.173-0.051,0.345-0.176,0.516C114.407,349.841,113.697,349.173,113.129,348.365z"/>
		<path fill="#F5A55C" d="M113.898,352.09c0-0.25-0.121-0.464-0.393-0.633c0.219-0.252,0.438-0.504,0.657-0.755
			c0.542,0.624,1.448,1.038,1.448,1.973c0,0.135-0.019,0.281-0.06,0.439c-0.344,0.118-0.705,0.312-1.022,0.312
			c-0.293,0-0.547-0.167-0.712-0.715c-0.002-0.074-0.004-0.148-0.005-0.221C113.868,352.349,113.898,352.215,113.898,352.09z"/>
		<path fill="#F5A55C" d="M123.672,352.41c0.006,0.001,0.013,0.002,0.019,0.002c0.158,0,0.276-0.411,0.447-0.411
			c0.275,0,0.35,1.005,1.022,1.005c0.17,0,0.361-0.078,0.569-0.275c0.23,0.218,0.362,0.467,0.362,0.701
			c0,0.418-0.43,0.69-0.784,0.69C124.549,354.122,124.224,353.306,123.672,352.41z"/>
		<path fill="#F5A55C" d="M113.816,352.712c0.24,0.335,0.544,0.397,0.862,0.397c0.188,0,0.381-0.022,0.568-0.022
			c0.103,0,0.204,0.007,0.303,0.027c-0.418,0.626-0.789,0.873-1.13,0.873c-0.5,0-0.936-0.53-1.357-1.175
			C113.313,352.778,113.564,352.745,113.816,352.712z"/>
		<path fill="#F5A55C" d="M76.02,334.037c0.592-0.215,1.184-0.323,1.776-0.323c0.59,0,1.18,0.107,1.77,0.324
			C78.384,334.037,77.202,334.037,76.02,334.037z"/>
		<path fill="#F5A55C" d="M126.387,351.763c0-0.005,0.026-0.729,0.027-0.734c0.423,0.337,0.795,0.687,0.795,1.16
			c0,0.216-0.078,0.458-0.264,0.736C126.582,352.567,126.387,352.211,126.387,351.763z"/>
		<path fill="#F5A55C" d="M119.253,347.405c0.608,0.143,0.996,0.457,0.996,1.075c0,0.059-0.004,0.121-0.011,0.186
			C119.747,348.373,119.312,348.035,119.253,347.405z"/>
		<path fill="#F5A55C" d="M115.521,350.658c-0.113,0-0.256-0.085-0.339-0.214c0.004-0.369,0.008-0.737,0.012-1.106
			c0.265,0.274,0.533,0.57,0.533,0.934c0,0.09-0.016,0.184-0.053,0.283C115.648,350.627,115.59,350.658,115.521,350.658z"/>
		<path fill="#F5A55C" d="M84.886,328.292c0.263,0,0.513,0.068,0.724,0.333c-0.262,0.017-0.546,0.148-0.804,0.148
			c-0.216,0-0.413-0.091-0.565-0.417C84.456,328.335,84.675,328.292,84.886,328.292z"/>
		<path fill="#F5A55C" d="M76.592,329.292c0.199,0,0.402,0.023,0.6,0.023c0.083,0,0.166-0.004,0.247-0.016
			c-0.249,0.255-0.53,0.313-0.821,0.313c-0.244,0-0.495-0.041-0.739-0.041c-0.033,0-0.065,0.001-0.097,0.002
			C76.03,329.34,76.307,329.292,76.592,329.292z"/>
		<path fill="#F5A55C" d="M113.485,351.786c0-0.108,0.01-0.219,0.02-0.329c0.148-0.041,0.299-0.076,0.436-0.076
			c0.529,0,0.538,0.605,0.538,0.62c0,0.344-0.339,0.422-0.667,0.49C113.545,352.302,113.485,352.053,113.485,351.786z"/>
		<path fill="#F5A55C" d="M119.808,338.15c0.131,0,0.239,0.081,0.239,0.294c0,0.016-0.001,0.033-0.002,0.051
			c-0.126,0.112-0.181,0.271-0.392,0.271c-0.177,0-0.318-0.101-0.318-0.279c0-0.033,0.005-0.069,0.016-0.108
			C119.382,338.262,119.668,338.15,119.808,338.15z"/>
	</g>
	<g id="skateboarding">
		<g>
			<path fill-rule="evenodd" clip-rule="evenodd" fill="#AB4A55" d="M236.549,174.509c-1.159,0-1.948-0.283-2.11-0.991
				c-0.745-3.262-3.607-11.104-3.607-15.111c0-2.513,1.844-6.416,4.831-6.416c0.362,0,0.728,0.064,1.091,0.201
				c0,0,2.828-3.64,6.034-3.64c4.266,0,14.618,14.308,14.618,18.326c0,1.81-2.709,3.285-4.534,3.285
				c-0.714,0-1.156-0.176-1.156-0.176S241.18,174.509,236.549,174.509z"/>
			<path fill-rule="evenodd" clip-rule="evenodd" fill="#F6A88A" d="M249.561,165.79c0,0.8,0.431,1.845,2.682,1.845
				c0.607,0,1.164-0.079,1.176-0.079c0,0,0.001,0,0.001,0c0,0.06-3.534,4.13-3.534,6.972c0,0.337,0.05,0.656,0.161,0.95
				c0,0-3.88,4.412-5.306,4.412c-0.568,0-1.969-1.898-3.11-1.898c-0.159,0-0.314,0.036-0.465,0.117
				c-0.996,0.535-2.699,6.629-2.699,6.629s-5.398-4.843-7.085-7.243c0,0,3.987-4.221,3.987-6.578c0-0.299-0.064-0.568-0.209-0.795
				c0,0-0.208,0.03-0.544,0.03c-2.668,0-4.633-1.746-4.633-3.861c0-2.314,2.078-4.912,4.293-4.912c0.504,0,3.462,0.398,3.462,3.178
				c0,0.511-0.133,1.007-0.39,1.419l1.689,0.956c0,0,1.543-3.373,3.113-4.709c0,0,0,0.009,0,0.024c0,0.186,0.054,1.374,1.438,1.374
				c0.603,0,1.458-0.226,2.672-0.858c0,0-0.503,0.725-0.503,1.387c0,0.558,0.357,1.071,1.67,1.071c0.57,0,1.319-0.097,2.298-0.328
				C249.727,164.892,249.561,165.294,249.561,165.79z"/>
			<path fill-rule="evenodd" clip-rule="evenodd" fill="#F6A88A" d="M291.895,195.222c0,0,17.09,0.762,17.437,0.762
				c3.502,0,6.4-0.426,7.2-1.558c1.058-1.492,3.621-7.328,4.843-7.916c0.517-0.249,1.033-0.338,1.774-0.338
				c1.845,0,4.238,0.45,9.953,0.45c2.127,0,3.682-0.061,3.682-0.061s0.104,0.269,0.104,0.623c0,0.64-0.34,1.56-2.248,1.68
				c-2.964,0.186-6.467,0.93-7.082,1.912c-0.615,0.982-0.512,6.468-1.331,6.999c-0.363,0.235-0.925,0.31-1.536,0.31
				c-0.893,0-2.12-0.182-2.264-0.182c-1.089,0-1.554,4.906-3.961,5.184c-0.372,0.043-0.679,0.06-0.954,0.06
				c-0.953,0-1.518-0.2-3.029-0.2l-27.594,1.989L291.895,195.222z"/>
			<path fill-rule="evenodd" clip-rule="evenodd" fill="#F6A88A" d="M151.604,182.794c0,0-6.54-6.12-9.734-8.894
				c-3.194-2.774-5.587-3.88-5.882-5.627c-0.443-2.627-1.688-7.834-1.688-7.91c0-1.23,3.761-3.292,4.933-3.292
				c0.42,0,3.978,2.512,5.923,2.877c1.407,0.265,2.202,1.983,2.202,2.863c0,0.199-0.041,0.355-0.124,0.442
				c-0.38,0.397-2.017,1.203-2.017,2.67c0,2.726,9.418,8.344,11.788,9.39L151.604,182.794z"/>
			<path fill-rule="evenodd" clip-rule="evenodd" fill="#AB4A55" d="M237.216,166.283l1.751,0.976l-0.15,0.601l-1.873-0.877
				L237.216,166.283z"/>
			<path fill-rule="evenodd" clip-rule="evenodd" fill="#FCF8EF" d="M292.779,194.045c0,0-6.682,13.423-7.281,14.701l-6.579,0.04
				c0,0,3.57-6.105,5.379-9.697c1.81-3.59,3.338-5.637,3.338-5.637L292.779,194.045z"/>
			<path fill-rule="evenodd" clip-rule="evenodd" fill="#FCF8EF" d="M239.446,185.014c0,0-7.658-7.871-8.679-8.146l-3.956,4.477
				l6.129,3.132L239.446,185.014z"/>
			<path fill-rule="evenodd" clip-rule="evenodd" fill="#FCF8EF" d="M149.605,185.139c0,0,3.348-4.266,4.838-6.284
				c1.489-2.019,3.527-4.753,3.527-4.753l3.592,2.323c0,0-1.546,1.69-3.814,4.334c-2.268,2.642-5.153,6.477-5.153,6.477
				L149.605,185.139z"/>
			<path fill-rule="evenodd" clip-rule="evenodd" fill="#225081" d="M204.386,231.641c0.036,0.175,0.047,1.274,0.047,2.962
				c0,2.802-0.031,7.224-0.031,11.728c0,21.768,1.044,27.398,1.044,27.631c0,1.529-7.807,23.557-7.807,23.557
				s-3.434-0.029-7.135-0.029c-7.614,0-11.794,0.168-11.794,0.168s5.69-19.696,5.69-20.85c0-0.961-1.139-1.422-1.139-2.465
				c0-0.749,0.597-1.286,0.597-2.218c0-2.572-8.541-25.357-8.541-25.357s-29.836,12.85-31.886,12.85
				c-3.623,0-36.734-18.332-36.734-18.332l9.937-16.993l27.345,14.506c0,0,0.91-1.5,1.828-1.5c0.665,0,0.602,1.281,1.158,1.281
				c1.816,0,20.419-25.901,26.006-28.415C172.971,210.166,204.259,231.028,204.386,231.641z"/>
			<path fill-rule="evenodd" clip-rule="evenodd" fill="#C79464" d="M287.413,193.801c0,0-21.436-3.043-25.068-4.055
				c-18.591-5.183-29.714-5.358-29.714-5.358l-5.946-3.212c0,0-5.829,0.19-9.323,1.519c-3.236,1.23-25.066,2.625-30.282,2.625
				c-1.261,0-1.2-0.107-2.441-0.107c-1.601,0-2.697,0.285-4.105,0.484c0,0-3.235-0.946-7.613-3.298
				c-4.377-2.352-11.672-5.632-11.672-5.632s-2.218,2.387-4.095,4.678c-1.878,2.289-4.001,5.136-4.001,5.136
				s21.564,14.311,22.288,14.311c0.484,0,0.982-0.211,1.639-0.368c1.241-0.297,11.43-1.036,11.43-1.036s-4.1,1.994-7.353,3.882
				c-3.251,1.886-4.539,3.346-6.126,3.768c-1.191,0.318-2.532,0.757-2.532,1.8c0,0.346,0.147,0.758,0.497,1.254
				c0,0,0.688,3.207,10.825,10.527c10.137,7.319,21.112,11.137,21.112,11.137s19.854-18.434,23.909-21.44
				c1.047-0.776,7.405-5.112,23.013-5.112c8.853,0,24.046,0.822,28.205,1.522L287.413,193.801z"/>
			<path fill-rule="evenodd" clip-rule="evenodd" fill="#548492" d="M105.856,243.018c0,0,3.59-6.238,6.317-10.851
				c2.726-4.613,5.111-9.094,5.111-9.094l-5.839-2.726c0,0-1.99,4.168-4.626,9.556c-2.635,5.387-5.802,11.198-5.802,11.198
				L105.856,243.018z"/>
			<path fill-rule="evenodd" clip-rule="evenodd" fill="#548492" d="M175.475,297.838c0,0,8.929-0.458,17.753-0.458
				c4.102,0,6.98,0.065,6.98,0.065l-2.56,6.769c0,0-2.227,0.017-5.559,0.017c-4.142,0-5.665-0.022-7.275-0.022
				c-5.82,0-11.261,0.213-11.261,0.213L175.475,297.838z"/>
			<path fill-rule="evenodd" clip-rule="evenodd" fill="#FCF8EF" d="M173.304,334.754l-2.111,6.656c0,0,0.348-0.01,1.04-0.01
				c8.815,0,12.741,0.974,24.113,0.974c2.444,0,3.971-0.051,3.971-0.051l1.023-2.288c0,0-2.608-3.123-5.423-3.882L173.304,334.754z"
				/>
			<path fill-rule="evenodd" clip-rule="evenodd" fill="#E35B5B" d="M176.524,324.014c0,0-0.101-0.026-0.242-0.026
				c-0.336,0-0.903,0.145-0.903,1.124c0,0.681,0.181,0.817,0.181,1.586c0,2.755-2.318,8.192-2.318,8.192s2.947,1.979,5.665,2.429
				c2.717,0.451,14.238,1.395,14.238,1.395s1.557-2.544,2.798-2.544c0.015,0,0.03,0,0.045,0.001c0,0-4.582-2.477-6.496-4.769
				c-1.915-2.292-2.756-4.236-2.756-4.236L176.524,324.014z"/>
			<path fill-rule="evenodd" clip-rule="evenodd" fill="#2B2B2B" d="M183.753,304.2c3.312,0,9.934,0.003,9.934,0.023l0,0
				c-3.796,8.902-6.993,23.317-6.993,23.317s-2.152,1.233-4.246,1.233c-2.868,0-6.288-3.854-6.288-3.854s1.552-5.398,2.93-10.484
				c1.379-5.085,2.822-10.235,2.822-10.235S182.649,304.2,183.753,304.2z"/>
			<path fill-rule="evenodd" clip-rule="evenodd" fill="#FCF8EF" d="M83.757,209.223l-3.81-2.765c0,0-3.379,4.426-6.167,9.609
				c-2.167,4.028-7.43,17.975-7.43,20.071c0,0.129,0.02,0.214,0.062,0.248c0.576,0.468,1.631,0.613,2.292,0.613
				c1.431,0,6.195-4.454,6.567-4.879C76.646,230.553,83.757,209.223,83.757,209.223z"/>
			<path fill-rule="evenodd" clip-rule="evenodd" fill="#E35B5B" d="M92.737,214.254c0,0-0.038-1.528-1.625-1.528
				c-0.169,0-0.209,0.013-0.323,0.013c-1.894,0-7.032-3.565-7.032-3.565s-3.878,3.894-6.534,8.185
				c-2.656,4.292-4.844,10.823-4.844,10.823s2.755,0.876,2.755,2.971c0,0.379-0.078,0.542-0.078,0.731
				c0,0.124,0.038,0.182,0.113,0.182c0.843,0,6.304-7.321,13.133-8.179L92.737,214.254z"/>
			<path fill-rule="evenodd" clip-rule="evenodd" fill="#2B2B2B" d="M109.843,223.706c0,0-5.547-2.6-9.883-5.158
				c-4.336-2.557-7.653-4.428-7.653-4.428s-0.724-0.365-1.691-0.365c-3.031,0-4.294,3.522-4.294,5.712
				c0,2.489,1.203,4.419,1.203,4.419s2.68,0.446,6.535,2.652c3.857,2.206,11.049,6.903,11.049,6.903L109.843,223.706z"/>
			<path fill-rule="evenodd" clip-rule="evenodd" fill="#E27C6B" d="M241.743,178.063c0.426,0,0.794,0.229,0.802,0.229v0
				c0-0.005-3.175-2.918-3.175-2.918s0.743,2.666,1.212,3.481C240.582,178.855,240.936,178.063,241.743,178.063z"/>
			<path fill-rule="evenodd" clip-rule="evenodd" fill="#E27C6B" d="M246.932,171.979c0-0.846-2.278-2.288-3.442-2.288
				c-0.471,0-0.635,0.244-0.635,0.432c0,0.781,2.307,2.314,3.461,2.314C246.737,172.437,246.932,172.221,246.932,171.979z"/>
			<g>
				<path fill="#E27C6B" d="M235.027,168.829c-0.347,0-0.604-0.283-0.604-0.604c0-0.371,0.834-1.386,0.834-2.611
					c0-2.136-2.517-1.25-2.517-2.34c0-0.331,0.256-0.605,0.589-0.605c0.181,0,3.136,0.259,3.136,2.94
					c0,0.837-0.304,1.809-0.911,2.909C235.445,168.717,235.239,168.829,235.027,168.829z"/>
			</g>
			<g>
				<path fill="#E27C6B" d="M232.975,167.201c-0.331,0-0.604-0.269-0.604-0.604c0-0.429,1.459-2.395,2.8-2.395
					c0.52,0,1.231,0.32,1.231,0.843c0,0.402-0.343,0.603-0.603,0.603c-0.362,0-0.38-0.239-0.629-0.239
					c-0.595,0-1.461,1.15-1.685,1.507C233.372,167.101,233.175,167.201,232.975,167.201z"/>
			</g>
			<path fill-rule="evenodd" clip-rule="evenodd" fill="#E27C6B" d="M157.045,175.339c0,0-1.229,1.676-2.997,4.041
				c-1.769,2.366-2.552,3.326-2.552,3.326l-1.412-1.351c0,0,0.598-0.335,3.138-2.59c2.54-2.255,3.636-3.516,3.636-3.516
				L157.045,175.339z"/>
			<path fill-rule="evenodd" clip-rule="evenodd" fill="#E27C6B" d="M292.366,195.242c0,0-2.204,4.583-2.204,8.43
				c0,0.664,0.044,1.084,0.044,1.084l-2.844,0.151l4.838-9.685L292.366,195.242z"/>
			<path fill-rule="evenodd" clip-rule="evenodd" fill="#97724F" d="M188.414,199.534c0.088-0.005,13.332-6.776,13.332-6.776
				s-7.142,2.22-12.244,4.07c-5.101,1.849-8.325,3.238-8.325,3.238S186.636,199.611,188.414,199.534z"/>
			<path fill-rule="evenodd" clip-rule="evenodd" fill="#97724F" d="M232.982,184.42l-6.136-3.14c0,0,1.828,1.219,1.828,2.188
				c0,0.337-0.221,0.643-0.815,0.858L232.982,184.42z"/>
			<path fill-rule="evenodd" clip-rule="evenodd" fill="#97724F" d="M287.344,193.826l-7.249,12.968l-2.416-0.307
				c0,0,0.726-0.382,3.827-4.263C284.607,198.344,287.344,193.826,287.344,193.826z"/>
			<path fill-rule="evenodd" clip-rule="evenodd" fill="#97724F" d="M160.666,177.399c0,0-4.472,6.567-6.185,10.076l-1.366-0.914
				c0,0,1.683-2.264,3.561-4.549C158.554,179.727,160.666,177.399,160.666,177.399z"/>
			<path fill-rule="evenodd" clip-rule="evenodd" fill="#2B2B2B" d="M175.311,246.771c0,0,1.815-0.757,5.43-3.078
				c3.614-2.32,9.03-6.204,9.03-6.204s-9.158,9.077-12.672,14.122L175.311,246.771z"/>
			<g>
				<path fill="#C9E8F1" d="M141.734,250.618c-0.634,0-0.661-0.673-0.661-0.883c0-0.194,0.024-0.32,0.024-0.355
					c0-2.4-29.359-16.104-29.359-16.278c0-0.119,0.112-0.15,0.152-0.15c0.122,0,29.507,13.856,29.507,16.445
					c0,0.054-0.023,0.16-0.023,0.341c0,0.47,0.176,0.579,0.363,0.579c0.652,0,2.072-1.279,2.497-2.738
					c0.243-0.832,0.692-1.018,1.044-1.018c1.043,0,2.024,1.462,2.14,2.064c0.009,0.053,0.148,0.051,0.151,0.051
					c7.954,0,33.676-29.272,34.161-29.272c0.096,0,0.151,0.079,0.151,0.15c0,0.122-26.722,29.415-34.346,29.415
					c-0.043,0-0.355,0.007-0.414-0.288c-0.124-0.642-1.064-1.784-1.809-1.818c-0.011,0-0.021-0.001-0.032-0.001
					c-0.347,0-0.601,0.27-0.756,0.802C144.11,249.087,142.634,250.618,141.734,250.618z"/>
			</g>
			<g>
				<path fill="#C9E8F1" d="M189.945,297.68c-0.132,0-0.151-0.129-0.151-0.151c0-0.121,5.806-19.016,5.806-20.317
					c0-1.262-1.376-0.718-1.376-2.121c0-1.946,2.925-0.694,2.925-2.142c0-1.119-1.507-0.495-1.745-1.957
					c-0.209-1.286-3.572-32.903-3.572-33.024c0-0.128,0.125-0.149,0.151-0.149c0.281,0,3.282,30.431,3.718,33.125
					c0.203,1.243,1.75,0.633,1.75,2.009c0,1.804-2.925,0.523-2.925,2.141c0,1.171,1.374,0.622,1.374,2.122
					C195.899,278.416,190.153,297.68,189.945,297.68z"/>
			</g>
			<g>
				<path fill="#FCF8EF" d="M191.307,337.67c-0.325,0-0.602-0.264-0.602-0.601c0-0.158,0.775-2.314,3.163-2.314
					c1.482,0,1.612,0.483,1.612,0.752c0,0.451-0.403,0.604-0.603,0.604c-0.199,0-0.455-0.147-1.001-0.147
					c-1.407,0-1.944,1.175-2.009,1.333C191.77,337.529,191.545,337.67,191.307,337.67z"/>
			</g>
			<g>
				<path fill="#FCF8EF" d="M189.305,335.873c-0.326,0-0.602-0.265-0.602-0.602c0-0.155,0.768-2.312,3.166-2.312
					c1.485,0,1.611,0.483,1.611,0.753c0,0.455-0.412,0.602-0.608,0.602c-0.195,0-0.46-0.146-0.996-0.146
					c-1.403,0-1.945,1.176-2.01,1.332C189.768,335.733,189.543,335.873,189.305,335.873z"/>
			</g>
			<g>
				<path fill="#FCF8EF" d="M187.059,333.979c-0.326,0-0.602-0.265-0.602-0.602c0-0.157,0.776-2.312,3.167-2.312
					c1.482,0,1.609,0.484,1.609,0.753c0,0.455-0.412,0.602-0.608,0.602c-0.197,0-0.461-0.148-1.001-0.148
					c-1.399,0-1.941,1.177-2.005,1.335C187.523,333.839,187.298,333.979,187.059,333.979z"/>
			</g>
			<g>
				<path fill="#FCF8EF" d="M185.033,331.512c-0.326,0-0.602-0.265-0.602-0.602c0-0.214,0.802-2.313,3.167-2.313
					c1.482,0,1.609,0.485,1.609,0.753c0,0.455-0.412,0.602-0.608,0.602c-0.197,0-0.461-0.147-0.999-0.147
					c-1.401,0-1.942,1.177-2.007,1.334C185.496,331.371,185.271,331.512,185.033,331.512z"/>
			</g>
			<g>
				<path fill="#FCF8EF" d="M76.713,231.445c-0.36,0-0.603-0.299-0.603-0.603c0-0.159,0.119-0.476,0.119-1.047
					c0-2.332-1.678-2.126-1.678-2.948c0-0.471,0.435-0.604,0.603-0.604c0.652,0,2.281,1.365,2.281,3.555
					C77.434,231.165,77.125,231.445,76.713,231.445z"/>
			</g>
			<g>
				<path fill="#FCF8EF" d="M78.875,229.996c-0.307,0-0.604-0.245-0.604-0.603c0-0.158,0.118-0.475,0.118-1.046
					c0-2.339-1.678-2.123-1.678-2.951c0-0.469,0.429-0.603,0.602-0.603c0.654,0,2.283,1.36,2.283,3.557
					C79.595,229.72,79.284,229.996,78.875,229.996z"/>
			</g>
			<g>
				<path fill="#FCF8EF" d="M81.275,228.057c-0.36,0-0.603-0.299-0.603-0.603c0-0.159,0.119-0.476,0.119-1.047
					c0-2.332-1.678-2.126-1.678-2.948c0-0.467,0.43-0.604,0.604-0.604c0.648,0,2.28,1.361,2.28,3.555
					C81.996,227.778,81.687,228.057,81.275,228.057z"/>
			</g>
			<g>
				<path fill="#FCF8EF" d="M83.604,226.373c-0.36,0-0.603-0.299-0.603-0.603c0-0.159,0.119-0.476,0.119-1.048
					c0-2.337-1.678-2.124-1.678-2.947c0-0.471,0.435-0.604,0.603-0.604c0.651,0,2.281,1.363,2.281,3.554
					C84.326,226.097,84.016,226.373,83.604,226.373z"/>
			</g>
			<path fill-rule="evenodd" clip-rule="evenodd" fill="#548492" d="M203.8,271.513c0,0,0.583,1.469,0.583,2.513
				c0,1.08-1.227,3.078-1.227,3.078l0.059-1.434l-1.61,1.874c0,0,0.858-1.717,0.858-2.699c0-0.815-0.8-2.541-0.8-2.541l1.492,1.084
				L203.8,271.513z"/>
			<path fill-rule="evenodd" clip-rule="evenodd" fill="#548492" d="M147.777,256.901c0,0-2.611,1.74-3.818,1.74
				c-0.843,0-3.587-1.788-3.587-1.788l2.12,0.271l-1.352-1.866c0,0,1.333,1.35,2.814,1.35c1.395,0,2.058-1.343,2.058-1.343
				l-0.738,2.163L147.777,256.901z"/>
			<path fill-rule="evenodd" clip-rule="evenodd" fill="#FCF8EF" d="M258.187,204.378c0,0,2.235,0.14,3.339,0.201
				c1.104,0.06,4.066,0.236,4.066,0.236l-2.42-0.666l1.85-0.722c0,0-0.833-0.045-1.786-0.045c-1.435,0-1.478,0.084-2.265,0.084
				c-1.377,0-3.197-0.248-3.197-0.248l2.312,0.708L258.187,204.378z"/>
			<path fill-rule="evenodd" clip-rule="evenodd" fill="#FCF8EF" d="M177.329,199.714c0,0-1.275,0.646-1.864,0.646
				c-0.517,0-1.373-1.183-1.903-1.487c0,0,0.011-0.001,0.031-0.001c0.121,0,0.573,0.023,0.924,0.343l-0.277-0.887
				c0,0,0.68,1.053,1.155,1.053c0.413,0,0.809-0.595,0.809-0.595l-0.137,0.807l0.93-0.805l-0.293,0.8L177.329,199.714z"/>
			<g>
				<path fill="#2B2B2B" d="M219.576,344.403c-1.805,0-39.921-1.644-64.21-1.644c-1.895,0-3.74,0.009-5.521,0.028
					c-0.017,0-0.034,0-0.051,0c-4.261,0-11.318-6.742-11.318-7.961c0-0.673,0.546-1.206,1.209-1.206
					c0.333,0,0.665,0.137,0.903,0.407c1.565,1.769,6.26,6.346,9.202,6.346c0.167,0,2.121-0.026,5.375-0.026
					c22.807,0,52.687,1.265,64.431,1.643c0.803-0.077,3.512-2.633,5.781-5.472c0.239-0.298,0.59-0.454,0.944-0.454
					c0.637,0,1.206,0.514,1.206,1.208C227.527,338.146,222.182,344.403,219.576,344.403z"/>
			</g>
			<g>
				<path fill="#2B2B2B" d="M159.663,354.934c-0.418,0-0.835-0.041-1.244-0.13h-0.001c-2.31-0.495-2.664-2.402-2.664-3.354
					c0-3.317,3.781-7.998,8.004-7.998c1.754,0,4.553,0.925,4.553,3.801C168.312,350.731,163.889,354.934,159.663,354.934z
					 M158.924,352.444c0.259,0.056,0.522,0.082,0.787,0.082c3.292,0,6.19-3.567,6.19-5.276c0-1.323-1.92-1.383-2.139-1.383
					c-2.756,0-5.589,3.452-5.589,5.611C158.174,352.225,158.557,352.364,158.924,352.444L158.924,352.444z"/>
			</g>
			<g>
				<path fill="#2B2B2B" d="M203.318,356.492c-0.418,0-0.835-0.041-1.244-0.13h-0.001c-2.31-0.495-2.664-2.402-2.664-3.354
					c0-3.302,3.764-7.998,8.004-7.998c1.749,0,4.554,0.921,4.554,3.801C211.967,352.29,207.543,356.492,203.318,356.492z
					 M202.579,354.002c0.257,0.055,0.519,0.08,0.782,0.08c3.299,0,6.195-3.562,6.195-5.275c0-1.323-1.922-1.384-2.141-1.384
					c-2.755,0-5.587,3.454-5.587,5.612C201.828,353.783,202.211,353.923,202.579,354.002L202.579,354.002z"/>
			</g>
		</g>
	</g>
</g>
</svg>
